<svg version="1.1" viewBox="0.0 0.0 1024.0 324.0" fill="none" stroke="none" stroke-linecap="square" stroke-miterlimit="10" xmlns:xlink="http://www.w3.org/1999/xlink" xmlns="http://www.w3.org/2000/svg"><clipPath id="p.0"><path d="m0 0l1024.0 0l0 324.0l-1024.0 0l0 -324.0z" clip-rule="nonzero"/></clipPath><g clip-path="url(#p.0)"><path fill="#000000" fill-opacity="0.0" d="m0 0l1024.0 0l0 324.0l-1024.0 0z" fill-rule="evenodd"/><path fill="#000000" fill-opacity="0.0" d="m794.70795 175.0167l0 77.44882" fill-rule="evenodd"/><path stroke="#393939" stroke-width="2.0" stroke-linejoin="round" stroke-linecap="butt" stroke-dasharray="8.0,6.0" d="m794.70795 175.0167l0 77.44882" fill-rule="evenodd"/><path fill="#000000" fill-opacity="0.0" d="m98.50236 168.9998l0 85.98425" fill-rule="evenodd"/><path stroke="#393939" stroke-width="2.0" stroke-linejoin="round" stroke-linecap="butt" stroke-dasharray="8.0,6.0" d="m98.50236 168.9998l0 85.98425" fill-rule="evenodd"/><path fill="#000000" fill-opacity="0.0" d="m449.52704 159.55489l0 91.968506" fill-rule="evenodd"/><path stroke="#393939" stroke-width="2.0" stroke-linejoin="round" stroke-linecap="butt" stroke-dasharray="8.0,6.0" d="m449.52704 159.55489l0 91.968506" fill-rule="evenodd"/><path fill="#000000" fill-opacity="0.0" d="m28.013838 254.70866l251.71654 0.4409485" fill-rule="evenodd"/><path stroke="#6f6f6f" stroke-width="2.0" stroke-linejoin="round" stroke-linecap="butt" d="m28.013838 254.70866l251.71654 0.4409485" fill-rule="evenodd"/><path fill="#000000" fill-opacity="0.0" d="m30.235249 251.97542c12.662037 -26.044113 21.498219 -57.45186 49.227352 -73.758606c8.238693 -4.84494 15.620346 -11.635864 25.442596 -13.658997c10.630737 -2.1896515 24.330994 0.46095276 32.079803 -5.9177094c4.9897156 -4.107422 4.568115 -10.997467 7.188843 -16.390793c6.2775726 -12.918915 19.248215 -23.270363 32.079803 -32.32749c28.042221 -19.793495 66.51817 -26.467567 99.558 -40.066406" fill-rule="evenodd"/><path stroke="#8a3ffc" stroke-width="2.0" stroke-linejoin="round" stroke-linecap="butt" d="m30.235249 251.97542c12.662037 -26.044113 21.498219 -57.45186 49.227352 -73.758606c8.238693 -4.84494 15.620346 -11.635864 25.442596 -13.658997c10.630737 -2.1896515 24.330994 0.46095276 32.079803 -5.9177094c4.9897156 -4.107422 4.568115 -10.997467 7.188843 -16.390793c6.2775726 -12.918915 19.248215 -23.270363 32.079803 -32.32749c28.042221 -19.793495 66.51817 -26.467567 99.558 -40.066406" fill-rule="evenodd"/><path fill="#000000" fill-opacity="0.0" d="m30.789875 216.92093c8.682415 0 17.677402 -3.4191742 25.994247 -1.367096c10.668545 2.6323395 21.41541 12.947342 31.528149 9.106003c9.9160385 -3.7666168 5.8243713 -17.722778 12.168205 -25.040298c9.511765 -10.97171 25.50663 -17.133682 39.823204 -23.675598c30.383713 -13.883789 66.89815 -16.24289 98.4518 -28.228607c15.241913 -5.789673 24.879745 -18.836563 39.26863 -25.953293" fill-rule="evenodd"/><path stroke="#0f62fe" stroke-width="2.0" stroke-linejoin="round" stroke-linecap="butt" d="m30.789875 216.92093c8.682415 0 17.677402 -3.4191742 25.994247 -1.367096c10.668545 2.6323395 21.41541 12.947342 31.528149 9.106003c9.9160385 -3.7666168 5.8243713 -17.722778 12.168205 -25.040298c9.511765 -10.97171 25.50663 -17.133682 39.823204 -23.675598c30.383713 -13.883789 66.89815 -16.24289 98.4518 -28.228607c15.241913 -5.789673 24.879745 -18.836563 39.26863 -25.953293" fill-rule="evenodd"/><path fill="#000000" fill-opacity="0.0" d="m28.577177 253.80107c17.37623 -6.1271057 23.295553 -25.683426 39.823196 -33.235703c10.819023 -4.9437256 20.893135 -11.346436 32.631447 -14.569595c14.1938095 -3.8974152 30.794106 2.0503693 44.80256 -2.2776947c8.734833 -2.6987457 14.360413 -9.853806 22.123993 -14.113113c14.65239 -8.038666 32.927094 -11.000412 50.330658 -13.204895c20.338425 -2.576233 39.711548 -10.9272 60.289337 -10.9272" fill-rule="evenodd"/><path stroke="#007d79" stroke-width="2.0" stroke-linejoin="round" stroke-linecap="butt" d="m28.577177 253.80107c17.37623 -6.1271057 23.295553 -25.683426 39.823196 -33.235703c10.819023 -4.9437256 20.893135 -11.346436 32.631447 -14.569595c14.1938095 -3.8974152 30.794106 2.0503693 44.80256 -2.2776947c8.734833 -2.6987457 14.360413 -9.853806 22.123993 -14.113113c14.65239 -8.038666 32.927094 -11.000412 50.330658 -13.204895c20.338425 -2.576233 39.711548 -10.9272 60.289337 -10.9272" fill-rule="evenodd"/><path fill="#000000" fill-opacity="0.0" d="m29.11438 48.0l0 206.70866" fill-rule="evenodd"/><path stroke="#6f6f6f" stroke-width="2.0" stroke-linejoin="round" stroke-linecap="butt" d="m29.11438 48.0l0 206.70866" fill-rule="evenodd"/><path fill="#000000" fill-opacity="0.0" d="m373.19476 254.70866l251.71655 0.4409485" fill-rule="evenodd"/><path stroke="#6f6f6f" stroke-width="2.0" stroke-linejoin="round" stroke-linecap="butt" d="m373.19476 254.70866l251.71655 0.4409485" fill-rule="evenodd"/><path fill="#000000" fill-opacity="0.0" d="m374.29532 48.0l0 206.70866" fill-rule="evenodd"/><path stroke="#6f6f6f" stroke-width="2.0" stroke-linejoin="round" stroke-linecap="butt" d="m374.29532 48.0l0 206.70866" fill-rule="evenodd"/><path fill="#000000" fill-opacity="0.0" d="m375.67752 198.25333c10.808655 6.3496094 12.73468 27.334106 25.718414 25.042694c5.222748 -0.9217224 4.583252 -8.014267 5.8068237 -12.294296c6.1235046 -21.419785 1.8586121 -52.244858 25.442596 -62.60434c19.161102 -8.416687 22.850372 38.043503 44.526733 39.155792c18.636658 0.9563141 31.089935 -17.124298 47.56662 -24.35675c31.526917 -13.838791 68.13678 -19.514832 103.70404 -22.310898" fill-rule="evenodd"/><path stroke="#0f62fe" stroke-width="2.0" stroke-linejoin="round" stroke-linecap="butt" d="m375.67752 198.25333c10.808655 6.3496094 12.73468 27.334106 25.718414 25.042694c5.222748 -0.9217224 4.583252 -8.014267 5.8068237 -12.294296c6.1235046 -21.419785 1.8586121 -52.244858 25.442596 -62.60434c19.161102 -8.416687 22.850372 38.043503 44.526733 39.155792c18.636658 0.9563141 31.089935 -17.124298 47.56662 -24.35675c31.526917 -13.838791 68.13678 -19.514832 103.70404 -22.310898" fill-rule="evenodd"/><path fill="#000000" fill-opacity="0.0" d="m375.40164 216.46204c9.470184 -9.739441 24.176361 -15.053162 36.50461 -22.308502c18.15033 -10.681717 26.788025 -30.337006 45.354218 -40.52289c14.667084 -8.046753 36.54663 -3.3993683 50.885193 -11.837799c16.366364 -9.631836 35.88742 -15.002899 54.203766 -21.854408c27.585022 -10.318565 46.60492 -31.989944 68.02991 -49.626503" fill-rule="evenodd"/><path stroke="#8a3ffc" stroke-width="2.0" stroke-linejoin="round" stroke-linecap="butt" d="m375.40164 216.46204c9.470184 -9.739441 24.176361 -15.053162 36.50461 -22.308502c18.15033 -10.681717 26.788025 -30.337006 45.354218 -40.52289c14.667084 -8.046753 36.54663 -3.3993683 50.885193 -11.837799c16.366364 -9.631836 35.88742 -15.002899 54.203766 -21.854408c27.585022 -10.318565 46.60492 -31.989944 68.02991 -49.626503" fill-rule="evenodd"/><path fill="#000000" fill-opacity="0.0" d="m718.3757 254.70866l251.71655 0.4409485" fill-rule="evenodd"/><path stroke="#6f6f6f" stroke-width="2.0" stroke-linejoin="round" stroke-linecap="butt" d="m718.3757 254.70866l251.71655 0.4409485" fill-rule="evenodd"/><path fill="#000000" fill-opacity="0.0" d="m719.47626 48.0l0 206.70866" fill-rule="evenodd"/><path stroke="#6f6f6f" stroke-width="2.0" stroke-linejoin="round" stroke-linecap="butt" d="m719.47626 48.0l0 206.70866" fill-rule="evenodd"/><path fill="#000000" fill-opacity="0.0" d="m721.1343 197.79984c25.312683 -4.1673737 47.73004 -16.220123 71.903015 -23.675598c13.643921 -4.208069 29.473022 3.5117035 43.69635 0.91059875c44.51111 -8.139969 88.8056 -20.943802 134.40186 -20.943802" fill-rule="evenodd"/><path stroke="#007d79" stroke-width="2.0" stroke-linejoin="round" stroke-linecap="butt" d="m721.1343 197.79984c25.312683 -4.1673737 47.73004 -16.220123 71.903015 -23.675598c13.643921 -4.208069 29.473022 3.5117035 43.69635 0.91059875c44.51111 -8.139969 88.8056 -20.943802 134.40186 -20.943802" fill-rule="evenodd"/><path fill="#000000" fill-opacity="0.0" d="m721.6889 214.64252c7.7905273 -10.692017 9.218323 -35.294968 23.78186 -31.871002c14.44281 3.395584 18.325989 35.68753 29.867432 27.77449c5.0785522 -3.4819794 3.899475 -10.600128 7.743408 -15.026093c16.559082 -19.06636 19.86267 -46.214447 41.483948 -61.464294c9.848145 -6.9460754 25.306824 -4.821274 37.61078 -8.195404c35.098938 -9.625282 72.52234 -12.174728 108.40759 -19.579102" fill-rule="evenodd"/><path stroke="#0f62fe" stroke-width="2.0" stroke-linejoin="round" stroke-linecap="butt" d="m721.6889 214.64252c7.7905273 -10.692017 9.218323 -35.294968 23.78186 -31.871002c14.44281 3.395584 18.325989 35.68753 29.867432 27.77449c5.0785522 -3.4819794 3.899475 -10.600128 7.743408 -15.026093c16.559082 -19.06636 19.86267 -46.214447 41.483948 -61.464294c9.848145 -6.9460754 25.306824 -4.821274 37.61078 -8.195404c35.098938 -9.625282 72.52234 -12.174728 108.40759 -19.579102" fill-rule="evenodd"/><path fill="#000000" fill-opacity="0.0" d="m229.66785 33.59592l0 0c0 -3.3079758 2.681656 -5.989622 5.989624 -5.989622l87.86328 0c1.5885315 0 3.11203 0.6310482 4.2352905 1.7543201c1.123291 1.123272 1.7543335 2.6467552 1.7543335 4.235302l0 23.957764c0 3.3079796 -2.6816406 5.989624 -5.989624 5.989624l-87.86328 0c-3.3079681 0 -5.989624 -2.6816444 -5.989624 -5.989624z" fill-rule="evenodd"/><path fill="#8a3ffc" d="m258.31488 53.273552q-1.640625 0 -2.796875 -0.703125q-1.15625 -0.703125 -1.75 -1.890625q-0.578125 -1.1875 -0.578125 -2.640625q0 -1.453125 0.578125 -2.625q0.59375 -1.1875 1.75 -1.890625q1.15625 -0.703125 2.796875 -0.703125q2.5625 0 3.296875 0.75q0.375 0.359375 0.453125 0.953125q0.078125 0.59375 0.078125 2.03125l-0.640625 0q-0.078125 -1.34375 -0.828125 -2.0625q-0.75 -0.71875 -2.046875 -0.71875q-1.171875 0 -1.875 1.078125q-0.6875 1.078125 -0.6875 3.1875q0 4.265625 2.671875 4.265625q1.03125 0 1.71875 -0.453125q0.6875 -0.453125 1.328125 -1.3125l0.671875 0.484375q-0.625 0.96875 -1.5625 1.609375q-0.9375 0.640625 -2.578125 0.640625z" fill-rule="nonzero"/><path fill="#8a3ffc" d="m263.58118 60.132927q0.40625 -0.40625 0.65625 -0.625q1.046875 -0.96875 1.8125 -1.796875q0.765625 -0.828125 1.34375 -1.78125q0.59375 -0.953125 0.59375 -1.796875q0 -1.046875 -0.46875 -1.578125q-0.453125 -0.53125 -1.109375 -0.53125q-0.921875 0 -1.515625 0.609375q-0.59375 0.609375 -0.8125 1.875l-0.5 0q0 -0.75 0.0625 -1.21875q0.0625 -0.46875 0.28125 -0.765625q0.40625 -0.484375 1.15625 -0.8125q0.75 -0.328125 1.625 -0.328125q1.28125 0 2.265625 0.609375q1.0 0.59375 1.0 2.140625q0 0.96875 -0.6875 1.984375q-0.671875 1.0 -1.53125 1.8125q-0.859375 0.796875 -2.0 1.703125q-0.6875 0.546875 -0.9375 0.78125l2.953125 0q0.84375 0 1.3125 -0.40625q0.46875 -0.40625 0.46875 -1.15625l0.421875 0l0 1.0625q0 1.140625 -1.203125 1.140625l-5.1875 0l0 -0.921875z" fill-rule="nonzero"/><path fill="#8a3ffc" d="m276.19812 57.320427q-2.4375 0 -3.84375 -0.78125q-1.390625 -0.78125 -1.390625 -2.53125q0 -1.0625 0.84375 -1.765625q0.859375 -0.703125 2.03125 -1.0q-0.953125 -0.296875 -0.953125 -1.171875q0 -0.734375 0.859375 -1.0625q-0.921875 -0.328125 -1.53125 -1.109375q-0.609375 -0.796875 -0.609375 -1.75q0 -1.75 1.25 -2.53125q1.25 -0.796875 3.34375 -0.796875l4.46875 0l0 0.578125l-1.921875 0.25q0.90625 0.34375 1.46875 1.046875q0.5625 0.703125 0.5625 1.453125q0 1.75 -1.1875 2.515625q-1.1875 0.765625 -3.390625 0.765625q-1.109375 0 -1.625 0.125q-0.515625 0.109375 -0.515625 0.515625q0 0.34375 0.515625 0.453125q0.515625 0.09375 1.625 0.125q2.296875 0.03125 3.75 0.90625q1.46875 0.859375 1.46875 2.453125q0 1.75 -1.40625 2.53125q-1.390625 0.78125 -3.8125 0.78125zm0 -8.75q1.703125 0 1.703125 -2.421875q0 -1.203125 -0.46875 -1.84375q-0.46875 -0.640625 -1.234375 -0.640625q-0.796875 0 -1.265625 0.625q-0.453125 0.625 -0.453125 1.859375q0 2.421875 1.71875 2.421875zm0 7.796875q1.109375 0 1.71875 -0.59375q0.625 -0.578125 0.625 -1.765625q0 -0.9375 -0.59375 -1.5625q-0.578125 -0.625 -1.59375 -0.8125l-1.0 -0.109375q-0.734375 0.3125 -1.125 0.921875q-0.390625 0.59375 -0.390625 1.5625q0 1.1875 0.625 1.765625q0.625 0.59375 1.734375 0.59375zm11.951538 1.375q-2.890625 -1.953125 -4.359375 -4.375q-1.453125 -2.421875 -1.453125 -5.4375q0 -3.0 1.453125 -5.421875q1.46875 -2.421875 4.359375 -4.390625l0.3125 0.4375q-1.796875 1.578125 -2.578125 3.953125q-0.78125 2.375 -0.78125 5.421875q0 3.0625 0.78125 5.4375q0.78125 2.375 2.578125 3.953125l-0.3125 0.421875zm1.8373413 -11.9375q0 -1.09375 -0.296875 -1.609375q-0.28125 -0.53125 -1.171875 -0.53125l-0.21875 0l0 -0.640625l2.125 0q0.71875 0 1.125 0.1875q0.421875 0.1875 0.65625 0.609375q1.09375 -1.0 3.109375 -1.0q2.03125 0 3.046875 0.953125q1.015625 0.9375 1.015625 2.96875l0 6.3125l-2.78125 0l0 -6.328125q0 -1.484375 -0.546875 -2.15625q-0.53125 -0.6875 -1.46875 -0.6875q-0.671875 0 -1.171875 0.1875q-0.5 0.171875 -0.796875 0.46875l0.0625 0.296875q0.09375 0.265625 0.09375 0.84375l0 7.375l-2.78125 0l0 -7.25zm10.139343 11.515625q1.78125 -1.578125 2.5625 -3.953125q0.78125 -2.375 0.78125 -5.4375q0 -3.046875 -0.78125 -5.421875q-0.78125 -2.375 -2.5625 -3.953125l0.296875 -0.4375q2.890625 1.96875 4.34375 4.390625q1.46875 2.421875 1.46875 5.421875q0 3.015625 -1.46875 5.4375q-1.453125 2.421875 -4.34375 4.375l-0.296875 -0.421875z" fill-rule="nonzero"/><path fill="#000000" fill-opacity="0.0" d="m232.70633 94.53476l0 0c0 -3.3079758 2.6816406 -5.9896164 5.989624 -5.9896164l81.784546 0c1.5885315 0 3.11203 0.6310425 4.2352905 1.7543182c1.1232605 1.1232681 1.754303 2.6467514 1.754303 4.235298l0 23.957764c0 3.3079758 -2.6816406 5.989624 -5.9895935 5.989624l-81.784546 0l0 0c-3.3079834 0 -5.989624 -2.6816483 -5.989624 -5.989624z" fill-rule="evenodd"/><path fill="#0f62fe" d="m265.00613 104.931145l-1.28125 0l0 -0.96875l1.28125 0l0 -0.5625q0 -1.8125 1.03125 -2.75q1.046875 -0.953125 3.125 -0.953125q0.609375 0 1.140625 0.109375q0.546875 0.09375 0.8125 0.265625q0.546875 0.3125 0.828125 0.90625l-0.859375 0.75q-0.3125 -0.515625 -0.78125 -0.78125q-0.46875 -0.28125 -1.03125 -0.28125q-0.734375 0 -1.109375 0.625q-0.375 0.609375 -0.375 2.109375l0 0.5625l2.765625 0l0 0.96875l-2.765625 0l0 9.0625l-2.78125 0l0 -9.0625zm12.0911255 13.75q-2.890625 -1.953125 -4.359375 -4.375q-1.453125 -2.421875 -1.453125 -5.4375q0 -3.0 1.453125 -5.421875q1.46875 -2.421875 4.359375 -4.390625l0.3125 0.4375q-1.796875 1.578125 -2.578125 3.953125q-0.78125 2.375 -0.78125 5.421875q0 3.0625 0.78125 5.4375q0.78125 2.375 2.578125 3.953125l-0.3125 0.421875zm1.8373413 -11.9375q0 -1.09375 -0.296875 -1.609375q-0.28125 -0.53125 -1.171875 -0.53125l-0.21875 0l0 -0.640625l2.125 0q0.71875 0 1.125 0.1875q0.421875 0.1875 0.65625 0.609375q1.09375 -1.0 3.109375 -1.0q2.03125 0 3.046875 0.953125q1.015625 0.9375 1.015625 2.96875l0 6.3125l-2.78125 0l0 -6.328125q0 -1.484375 -0.546875 -2.15625q-0.53125 -0.6875 -1.46875 -0.6875q-0.671875 0 -1.171875 0.1875q-0.5 0.171875 -0.796875 0.46875l0.0625 0.296875q0.09375 0.265625 0.09375 0.84375l0 7.375l-2.78125 0l0 -7.25zm10.139343 11.515625q1.78125 -1.578125 2.5625 -3.953125q0.78125 -2.375 0.78125 -5.4375q0 -3.046875 -0.78125 -5.421875q-0.78125 -2.375 -2.5625 -3.953125l0.296875 -0.4375q2.890625 1.96875 4.34375 4.390625q1.46875 2.421875 1.46875 5.421875q0 3.015625 -1.46875 5.4375q-1.453125 2.421875 -4.34375 4.375l-0.296875 -0.421875z" fill-rule="nonzero"/><path fill="#000000" fill-opacity="0.0" d="m229.66785 178.0625l0 0c0 -3.3079681 2.681656 -5.989624 5.989624 -5.989624l87.86328 0c1.5885315 0 3.11203 0.63105774 4.2352905 1.7543335c1.123291 1.1232605 1.7543335 2.6467438 1.7543335 4.2352905l0 23.957764c0 3.3079834 -2.6816406 5.989624 -5.989624 5.989624l-87.86328 0c-3.3079681 0 -5.989624 -2.6816406 -5.989624 -5.989624z" fill-rule="evenodd"/><path fill="#007d79" d="m259.8505 197.74014q-1.640625 0 -2.796875 -0.703125q-1.15625 -0.703125 -1.75 -1.890625q-0.578125 -1.1875 -0.578125 -2.640625q0 -1.453125 0.578125 -2.625q0.59375 -1.1875 1.75 -1.890625q1.15625 -0.703125 2.796875 -0.703125q2.5625 0 3.296875 0.75q0.375 0.359375 0.453125 0.953125q0.078125 0.59375 0.078125 2.03125l-0.640625 0q-0.078125 -1.34375 -0.828125 -2.0625q-0.75 -0.71875 -2.046875 -0.71875q-1.171875 0 -1.875 1.078125q-0.6875 1.078125 -0.6875 3.1875q0 4.265625 2.671875 4.265625q1.03125 0 1.71875 -0.453125q0.6875 -0.453125 1.328125 -1.3125l0.671875 0.484375q-0.625 0.96875 -1.5625 1.609375q-0.9375 0.640625 -2.578125 0.640625z" fill-rule="nonzero"/><path fill="#007d79" d="m266.22617 205.5214l0 -7.703125l-1.234375 0.796875l-0.34375 -0.4375l2.1875 -2.046875l1.25 0l0 9.390625l-1.859375 0z" fill-rule="nonzero"/><path fill="#007d79" d="m274.6625 201.78702q-2.4375 0 -3.84375 -0.78125q-1.390625 -0.78125 -1.390625 -2.53125q0 -1.0625 0.84375 -1.765625q0.859375 -0.703125 2.03125 -1.0q-0.953125 -0.296875 -0.953125 -1.171875q0 -0.734375 0.859375 -1.0625q-0.921875 -0.328125 -1.53125 -1.109375q-0.609375 -0.796875 -0.609375 -1.75q0 -1.75 1.25 -2.53125q1.25 -0.796875 3.34375 -0.796875l4.46875 0l0 0.578125l-1.921875 0.25q0.90625 0.34375 1.46875 1.046875q0.5625 0.703125 0.5625 1.453125q0 1.75 -1.1875 2.515625q-1.1875 0.765625 -3.390625 0.765625q-1.109375 0 -1.625 0.125q-0.515625 0.109375 -0.515625 0.515625q0 0.34375 0.515625 0.453125q0.515625 0.09375 1.625 0.125q2.296875 0.03125 3.75 0.90625q1.46875 0.859375 1.46875 2.453125q0 1.75 -1.40625 2.53125q-1.390625 0.78125 -3.8125 0.78125zm0 -8.75q1.703125 0 1.703125 -2.421875q0 -1.203125 -0.46875 -1.84375q-0.46875 -0.640625 -1.234375 -0.640625q-0.796875 0 -1.265625 0.625q-0.453125 0.625 -0.453125 1.859375q0 2.421875 1.71875 2.421875zm0 7.796875q1.109375 0 1.71875 -0.59375q0.625 -0.578125 0.625 -1.765625q0 -0.9375 -0.59375 -1.5625q-0.578125 -0.625 -1.59375 -0.8125l-1.0 -0.109375q-0.734375 0.3125 -1.125 0.921875q-0.390625 0.59375 -0.390625 1.5625q0 1.1875 0.625 1.765625q0.625 0.59375 1.734375 0.59375zm11.951538 1.375q-2.890625 -1.953125 -4.359375 -4.375q-1.453125 -2.421875 -1.453125 -5.4375q0 -3.0 1.453125 -5.421875q1.46875 -2.421875 4.359375 -4.390625l0.3125 0.4375q-1.796875 1.578125 -2.578125 3.953125q-0.78125 2.375 -0.78125 5.421875q0 3.0625 0.78125 5.4375q0.78125 2.375 2.578125 3.953125l-0.3125 0.421875zm1.8373413 -11.9375q0 -1.09375 -0.296875 -1.609375q-0.28125 -0.53125 -1.171875 -0.53125l-0.21875 0l0 -0.640625l2.125 0q0.71875 0 1.125 0.1875q0.421875 0.1875 0.65625 0.609375q1.09375 -1.0 3.109375 -1.0q2.0312805 0 3.0469055 0.953125q1.015625 0.9375 1.015625 2.96875l0 6.3125l-2.7812805 0l0 -6.328125q0 -1.484375 -0.546875 -2.15625q-0.53125 -0.6875 -1.46875 -0.6875q-0.671875 0 -1.171875 0.1875q-0.5 0.171875 -0.796875 0.46875l0.0625 0.296875q0.09375 0.265625 0.09375 0.84375l0 7.375l-2.78125 0l0 -7.25zm10.139374 11.515625q1.78125 -1.578125 2.5625 -3.953125q0.78125 -2.375 0.78125 -5.4375q0 -3.046875 -0.78125 -5.421875q-0.78125 -2.375 -2.5625 -3.953125l0.296875 -0.4375q2.890625 1.96875 4.34375 4.390625q1.46875 2.421875 1.46875 5.421875q0 3.015625 -1.46875 5.4375q-1.453125 2.421875 -4.34375 4.375l-0.296875 -0.421875z" fill-rule="nonzero"/><path fill="#000000" fill-opacity="0.0" d="m327.11688 167.0l423.71655 0l0 42.015747l-423.71655 0z" fill-rule="evenodd"/><path fill="#000000" fill-opacity="0.0" d="m586.2558 110.53476l0 0c0 -3.3079758 2.6816406 -5.9896164 5.989624 -5.9896164l81.784546 0c1.588562 0 3.1119995 0.6310425 4.2352905 1.7543182c1.123291 1.1232681 1.7543335 2.6467514 1.7543335 4.235298l0 23.957764c0 3.3079834 -2.6816406 5.989624 -5.989624 5.989624l-81.784546 0l0 0c-3.3079834 0 -5.989624 -2.6816406 -5.989624 -5.989624z" fill-rule="evenodd"/><path fill="#0f62fe" d="m618.5556 120.931145l-1.28125 0l0 -0.96875l1.28125 0l0 -0.5625q0 -1.8125 1.03125 -2.75q1.046875 -0.953125 3.125 -0.953125q0.609375 0 1.140625 0.109375q0.546875 0.09375 0.8125 0.265625q0.546875 0.3125 0.828125 0.90625l-0.859375 0.75q-0.3125 -0.515625 -0.78125 -0.78125q-0.46875 -0.28125 -1.03125 -0.28125q-0.734375 0 -1.109375 0.625q-0.375 0.609375 -0.375 2.109375l0 0.5625l2.765625 0l0 0.96875l-2.765625 0l0 9.062492l-2.78125 0l0 -9.062492zm12.0911255 13.749992q-2.890625 -1.953125 -4.359375 -4.375q-1.453125 -2.4218674 -1.453125 -5.4374924q0 -3.0 1.453125 -5.421875q1.46875 -2.421875 4.359375 -4.390625l0.3125 0.4375q-1.796875 1.578125 -2.578125 3.953125q-0.78125 2.375 -0.78125 5.421875q0 3.0625 0.78125 5.4374924q0.78125 2.375 2.578125 3.953125l-0.3125 0.421875zm1.8373413 -11.937492q0 -1.09375 -0.296875 -1.609375q-0.28125 -0.53125 -1.171875 -0.53125l-0.21875 0l0 -0.640625l2.125 0q0.71875 0 1.125 0.1875q0.421875 0.1875 0.65625 0.609375q1.09375 -1.0 3.109375 -1.0q2.03125 0 3.046875 0.953125q1.015625 0.9375 1.015625 2.96875l0 6.3124924l-2.78125 0l0 -6.3281174q0 -1.484375 -0.546875 -2.15625q-0.53125 -0.6875 -1.46875 -0.6875q-0.671875 0 -1.171875 0.1875q-0.5 0.171875 -0.796875 0.46875l0.0625 0.296875q0.09375 0.265625 0.09375 0.84375l0 7.3749924l-2.78125 0l0 -7.2499924zm10.139343 11.515617q1.78125 -1.578125 2.5625 -3.953125q0.78125 -2.3749924 0.78125 -5.4374924q0 -3.046875 -0.78125 -5.421875q-0.78125 -2.375 -2.5625 -3.953125l0.296875 -0.4375q2.890625 1.96875 4.34375 4.390625q1.46875 2.421875 1.46875 5.421875q0 3.015625 -1.46875 5.4374924q-1.453125 2.421875 -4.34375 4.375l-0.296875 -0.421875z" fill-rule="nonzero"/><path fill="#000000" fill-opacity="0.0" d="m583.21735 41.59592l0 0c0 -3.3079758 2.6816406 -5.98962 5.989624 -5.98962l87.86328 0c1.588501 0 3.1119995 0.6310463 4.2352905 1.7543182c1.12323 1.123272 1.7543335 2.6467552 1.7543335 4.235302l0 23.957767c0 3.3079758 -2.6817017 5.9896164 -5.989624 5.9896164l-87.86328 0c-3.3079834 0 -5.989624 -2.6816406 -5.989624 -5.9896164z" fill-rule="evenodd"/><path fill="#8a3ffc" d="m615.6963 61.273552q-1.640625 0 -2.796875 -0.703125q-1.15625 -0.703125 -1.75 -1.890625q-0.578125 -1.1875 -0.578125 -2.640625q0 -1.453125 0.578125 -2.625q0.59375 -1.1875 1.75 -1.890625q1.15625 -0.703125 2.796875 -0.703125q2.5625 0 3.296875 0.75q0.375 0.359375 0.453125 0.953125q0.078125 0.59375 0.078125 2.03125l-0.640625 0q-0.078125 -1.34375 -0.828125 -2.0625q-0.75 -0.71875 -2.046875 -0.71875q-1.171875 0 -1.875 1.078125q-0.6875 1.078125 -0.6875 3.1875q0 4.265625 2.671875 4.265625q1.03125 0 1.71875 -0.453125q0.6875 -0.453125 1.328125 -1.3125l0.671875 0.484375q-0.625 0.96875 -1.5625 1.609375q-0.9375 0.640625 -2.578125 0.640625zm10.219421 4.046875q-2.4375 0 -3.84375 -0.78125q-1.390625 -0.78125 -1.390625 -2.53125q0 -1.0625 0.84375 -1.765625q0.859375 -0.703125 2.03125 -1.0q-0.953125 -0.296875 -0.953125 -1.171875q0 -0.734375 0.859375 -1.0625q-0.921875 -0.328125 -1.53125 -1.109375q-0.609375 -0.796875 -0.609375 -1.75q0 -1.75 1.25 -2.53125q1.25 -0.796875 3.34375 -0.796875l4.46875 0l0 0.578125l-1.921875 0.25q0.90625 0.34375 1.46875 1.046875q0.5625 0.703125 0.5625 1.453125q0 1.75 -1.1875 2.515625q-1.1875 0.765625 -3.390625 0.765625q-1.109375 0 -1.625 0.125q-0.515625 0.109375 -0.515625 0.515625q0 0.34375 0.515625 0.453125q0.515625 0.09375 1.625 0.125q2.296875 0.03125 3.75 0.90625q1.46875 0.859375 1.46875 2.453125q0 1.75 -1.40625 2.53125q-1.390625 0.78125 -3.8125 0.78125zm0 -8.75q1.703125 0 1.703125 -2.421875q0 -1.203125 -0.46875 -1.84375q-0.46875 -0.640625 -1.234375 -0.640625q-0.796875 0 -1.265625 0.625q-0.453125 0.625 -0.453125 1.859375q0 2.421875 1.71875 2.421875zm0 7.796875q1.109375 0 1.71875 -0.59375q0.625 -0.578125 0.625 -1.765625q0 -0.9375 -0.59375 -1.5625q-0.578125 -0.625 -1.59375 -0.8125l-1.0 -0.109375q-0.734375 0.3125 -1.125 0.921875q-0.390625 0.59375 -0.390625 1.5625q0 1.1875 0.625 1.765625q0.625 0.59375 1.734375 0.59375zm11.951477 1.375q-2.890625 -1.953125 -4.359375 -4.375q-1.453125 -2.421875 -1.453125 -5.4375q0 -3.0 1.453125 -5.421875q1.46875 -2.421875 4.359375 -4.390625l0.3125 0.4375q-1.796875 1.578125 -2.578125 3.953125q-0.78125 2.375 -0.78125 5.421875q0 3.0625 0.78125 5.4375q0.78125 2.375 2.578125 3.953125l-0.3125 0.421875zm1.8374023 -11.9375q0 -1.09375 -0.296875 -1.609375q-0.28125 -0.53125 -1.171875 -0.53125l-0.21875 0l0 -0.640625l2.125 0q0.71875 0 1.125 0.1875q0.421875 0.1875 0.65625 0.609375q1.09375 -1.0 3.109375 -1.0q2.03125 0 3.046875 0.953125q1.015625 0.9375 1.015625 2.96875l0 6.3125l-2.78125 0l0 -6.328125q0 -1.484375 -0.546875 -2.15625q-0.53125 -0.6875 -1.46875 -0.6875q-0.671875 0 -1.171875 0.1875q-0.5 0.171875 -0.796875 0.46875l0.0625 0.296875q0.09375 0.265625 0.09375 0.84375l0 7.375l-2.78125 0l0 -7.25zm10.139343 11.515625q1.78125 -1.578125 2.5625 -3.953125q0.78125 -2.375 0.78125 -5.4375q0 -3.046875 -0.78125 -5.421875q-0.78125 -2.375 -2.5625 -3.953125l0.296875 -0.4375q2.890625 1.96875 4.34375 4.390625q1.46875 2.421875 1.46875 5.421875q0 3.015625 -1.46875 5.4375q-1.453125 2.421875 -4.34375 4.375l-0.296875 -0.421875z" fill-rule="nonzero"/><path fill="#000000" fill-opacity="0.0" d="m928.1443 76.30116l0 0c0 -3.3079758 2.6816406 -5.9896164 5.989624 -5.9896164l81.784485 0c1.588562 0 3.1120605 0.6310425 4.2353516 1.7543182c1.12323 1.1232681 1.7542725 2.6467514 1.7542725 4.235298l0 23.957771c0 3.3079758 -2.6816406 5.9896164 -5.989624 5.9896164l-81.784485 0l0 0c-3.3079834 0 -5.989624 -2.6816406 -5.989624 -5.9896164z" fill-rule="evenodd"/><path fill="#0f62fe" d="m960.44403 86.69755l-1.28125 0l0 -0.96875l1.28125 0l0 -0.5625q0 -1.8125 1.03125 -2.75q1.046875 -0.953125 3.125 -0.953125q0.609375 0 1.140625 0.109375q0.546875 0.09375 0.8125 0.265625q0.546875 0.3125 0.828125 0.90625l-0.859375 0.75q-0.3125 -0.515625 -0.78125 -0.78125q-0.46875 -0.28125 -1.03125 -0.28125q-0.734375 0 -1.109375 0.625q-0.375 0.609375 -0.375 2.109375l0 0.5625l2.765625 0l0 0.96875l-2.765625 0l0 9.0625l-2.78125 0l0 -9.0625zm12.0911255 13.75q-2.890625 -1.953125 -4.359375 -4.375q-1.453125 -2.421875 -1.453125 -5.4375q0 -3.0 1.453125 -5.421875q1.46875 -2.421875 4.359375 -4.390625l0.3125 0.4375q-1.796875 1.578125 -2.578125 3.953125q-0.78125 2.375 -0.78125 5.421875q0 3.0625 0.78125 5.4375q0.78125 2.375 2.578125 3.953125l-0.3125 0.421875zm1.8374023 -11.9375q0 -1.09375 -0.296875 -1.609375q-0.28125 -0.53125 -1.171875 -0.53125l-0.21875 0l0 -0.640625l2.125 0q0.71875 0 1.125 0.1875q0.421875 0.1875 0.65625 0.609375q1.09375 -1.0 3.109375 -1.0q2.03125 0 3.046875 0.953125q1.015625 0.9375 1.015625 2.96875l0 6.3125l-2.78125 0l0 -6.328125q0 -1.484375 -0.546875 -2.15625q-0.53125 -0.6875 -1.46875 -0.6875q-0.671875 0 -1.171875 0.1875q-0.5 0.171875 -0.796875 0.46875l0.0625 0.296875q0.09375 0.265625 0.09375 0.84375l0 7.375l-2.78125 0l0 -7.25zm10.139343 11.515625q1.78125 -1.578125 2.5625 -3.953125q0.78125 -2.375 0.78125 -5.4375q0 -3.046875 -0.78125 -5.421875q-0.78125 -2.375 -2.5625 -3.953125l0.296875 -0.4375q2.890625 1.96875 4.34375 4.390625q1.46875 2.421875 1.46875 5.421875q0 3.015625 -1.46875 5.4375q-1.453125 2.421875 -4.34375 4.375l-0.296875 -0.421875z" fill-rule="nonzero"/><path fill="#000000" fill-opacity="0.0" d="m928.994 158.1058l0 0c0 -3.3079681 2.6816406 -5.989609 5.989624 -5.989609l87.86328 0c1.588501 0 3.1120605 0.6310425 4.2353516 1.7543182c1.123291 1.1232605 1.7542725 2.6467438 1.7542725 4.2352905l0 23.957779c0 3.3079681 -2.6816406 5.989609 -5.989624 5.989609l-87.86328 0c-3.3079834 0 -5.989624 -2.6816406 -5.989624 -5.989609z" fill-rule="evenodd"/><path fill="#007d79" d="m961.47296 177.78345q-1.640625 0 -2.796875 -0.703125q-1.15625 -0.703125 -1.75 -1.890625q-0.578125 -1.1875 -0.578125 -2.640625q0 -1.453125 0.578125 -2.625q0.59375 -1.1875 1.75 -1.890625q1.15625 -0.703125 2.796875 -0.703125q2.5625 0 3.296875 0.75q0.375 0.359375 0.453125 0.953125q0.078125 0.59375 0.078125 2.03125l-0.640625 0q-0.078125 -1.34375 -0.828125 -2.0625q-0.75 -0.71875 -2.046875 -0.71875q-1.171875 0 -1.875 1.078125q-0.6875 1.078125 -0.6875 3.1875q0 4.265625 2.671875 4.265625q1.03125 0 1.71875 -0.453125q0.6875 -0.453125 1.328125 -1.3125l0.671875 0.484375q-0.625 0.96875 -1.5625 1.609375q-0.9375 0.640625 -2.578125 0.640625zm10.219421 4.046875q-2.4375 0 -3.84375 -0.78125q-1.390625 -0.78125 -1.390625 -2.53125q0 -1.0625 0.84375 -1.765625q0.859375 -0.703125 2.03125 -1.0q-0.953125 -0.296875 -0.953125 -1.171875q0 -0.734375 0.859375 -1.0625q-0.921875 -0.328125 -1.53125 -1.109375q-0.609375 -0.796875 -0.609375 -1.75q0 -1.75 1.25 -2.53125q1.25 -0.796875 3.34375 -0.796875l4.46875 0l0 0.578125l-1.921875 0.25q0.90625 0.34375 1.46875 1.046875q0.5625 0.703125 0.5625 1.453125q0 1.75 -1.1875 2.515625q-1.1875 0.765625 -3.390625 0.765625q-1.109375 0 -1.625 0.125q-0.515625 0.109375 -0.515625 0.515625q0 0.34375 0.515625 0.453125q0.515625 0.09375 1.625 0.125q2.296875 0.03125 3.75 0.90625q1.46875 0.859375 1.46875 2.453125q0 1.75 -1.40625 2.53125q-1.390625 0.78125 -3.8125 0.78125zm0 -8.75q1.703125 0 1.703125 -2.421875q0 -1.203125 -0.46875 -1.84375q-0.46875 -0.640625 -1.234375 -0.640625q-0.796875 0 -1.265625 0.625q-0.453125 0.625 -0.453125 1.859375q0 2.421875 1.71875 2.421875zm0 7.796875q1.109375 0 1.71875 -0.59375q0.625 -0.578125 0.625 -1.765625q0 -0.9375 -0.59375 -1.5625q-0.578125 -0.625 -1.59375 -0.8125l-1.0 -0.109375q-0.734375 0.3125 -1.125 0.921875q-0.390625 0.59375 -0.390625 1.5625q0 1.1875 0.625 1.765625q0.625 0.59375 1.734375 0.59375zm11.951538 1.375q-2.890625 -1.953125 -4.359375 -4.375q-1.453125 -2.421875 -1.453125 -5.4375q0 -3.0 1.453125 -5.421875q1.46875 -2.421875 4.359375 -4.390625l0.3125 0.4375q-1.796875 1.578125 -2.578125 3.953125q-0.78125 2.375 -0.78125 5.421875q0 3.0625 0.78125 5.4375q0.78125 2.375 2.578125 3.953125l-0.3125 0.421875zm1.8373413 -11.9375q0 -1.09375 -0.296875 -1.609375q-0.28125 -0.53125 -1.171875 -0.53125l-0.21875 0l0 -0.640625l2.125 0q0.71875 0 1.125 0.1875q0.421875 0.1875 0.65625 0.609375q1.09375 -1.0 3.109375 -1.0q2.03125 0 3.046875 0.953125q1.015625 0.9375 1.015625 2.96875l0 6.3125l-2.78125 0l0 -6.328125q0 -1.484375 -0.546875 -2.15625q-0.53125 -0.6875 -1.46875 -0.6875q-0.671875 0 -1.171875 0.1875q-0.5 0.171875 -0.796875 0.46875l0.0625 0.296875q0.09375 0.265625 0.09375 0.84375l0 7.375l-2.78125 0l0 -7.25zm10.139343 11.515625q1.78125 -1.578125 2.5625 -3.953125q0.78125 -2.375 0.78125 -5.4375q0 -3.046875 -0.78125 -5.421875q-0.78125 -2.375 -2.5625 -3.953125l0.296875 -0.4375q2.890625 1.96875 4.34375 4.390625q1.46875 2.421875 1.46875 5.421875q0 3.015625 -1.46875 5.4375q-1.453125 2.421875 -4.34375 4.375l-0.296875 -0.421875z" fill-rule="nonzero"/><path fill="#000000" fill-opacity="0.0" d="m121.02362 266.28873l149.00787 0l0 42.015747l-149.00787 0z" fill-rule="evenodd"/><path fill="#e0e0e0" d="m135.58237 285.9141l-1.28125 0l0 -0.96875l1.28125 0l0 -0.5625q0 -1.8125 1.03125 -2.75q1.046875 -0.953125 3.125 -0.953125q0.609375 0 1.140625 0.109375q0.546875 0.09375 0.8125 0.265625q0.546875 0.3125 0.828125 0.90625l-0.859375 0.75q-0.3125 -0.515625 -0.78125 -0.78125q-0.46875 -0.28125 -1.03125 -0.28125q-0.734375 0 -1.109375 0.625q-0.375 0.609375 -0.375 2.109375l0 0.5625l2.765625 0l0 0.96875l-2.765625 0l0 9.0625l-2.78125 0l0 -9.0625zm12.0911255 13.75q-2.890625 -1.953125 -4.359375 -4.375q-1.453125 -2.421875 -1.453125 -5.4375q0 -3.0 1.453125 -5.421875q1.46875 -2.421875 4.359375 -4.390625l0.3125 0.4375q-1.796875 1.578125 -2.578125 3.953125q-0.78125 2.375 -0.78125 5.421875q0 3.0625 0.78125 5.4375q0.78125 2.375 2.578125 3.953125l-0.3125 0.421875zm1.8373566 -11.9375q0 -1.09375 -0.296875 -1.609375q-0.28125 -0.53125 -1.171875 -0.53125l-0.21875 0l0 -0.640625l2.125 0q0.71875 0 1.125 0.1875q0.421875 0.1875 0.65625 0.609375q1.09375 -1.0 3.109375 -1.0q2.03125 0 3.046875 0.953125q1.015625 0.9375 1.015625 2.96875l0 6.3125l-2.78125 0l0 -6.328125q0 -1.484375 -0.546875 -2.15625q-0.53125 -0.6875 -1.46875 -0.6875q-0.671875 0 -1.171875 0.1875q-0.5 0.171875 -0.796875 0.46875l0.0625 0.296875q0.09375 0.265625 0.09375 0.84375l0 7.375l-2.78125 0l0 -7.25zm10.139343 11.515625q1.78125 -1.578125 2.5625 -3.953125q0.78125 -2.375 0.78125 -5.4375q0 -3.046875 -0.78125 -5.421875q-0.78125 -2.375 -2.5625 -3.953125l0.296875 -0.4375q2.890625 1.96875 4.34375 4.390625q1.46875 2.421875 1.46875 5.421875q0 3.015625 -1.46875 5.4375q-1.453125 2.421875 -4.34375 4.375l-0.296875 -0.421875zm13.194031 -12.484375l0 -1.484375l11.71875 0l0 1.484375l-11.71875 0zm0 3.84375l0 -1.484375l11.71875 0l0 1.484375l-11.71875 0z" fill-rule="nonzero"/><path fill="#e0e0e0" d="m206.82828 287.36722q0 3.453125 -1.828125 5.59375q-1.9375 2.28125 -5.328125 2.28125q-4.8125 0 -6.703125 -3.59375q-0.953125 -1.78125 -0.953125 -4.21875q0 -3.640625 1.84375 -5.75q1.953125 -2.234375 5.546875 -2.234375q3.53125 0 5.515625 2.21875q1.90625 2.125 1.90625 5.703125zm-3.265625 -1.3125q-0.515625 -3.96875 -4.125 -3.96875q-1.796875 0 -2.890625 1.109375q-1.03125 1.03125 -1.265625 2.859375l8.28125 0zm0 2.578125l-8.28125 0q0.234375 1.703125 1.140625 2.671875q1.234375 1.296875 3.015625 1.296875q1.765625 0 2.984375 -1.296875q0.890625 -0.9375 1.140625 -2.671875z" fill-rule="nonzero"/><path fill="#e0e0e0" d="m214.04298 299.6641q-2.890625 -1.953125 -4.359375 -4.375q-1.453125 -2.421875 -1.453125 -5.4375q0 -3.0 1.453125 -5.421875q1.46875 -2.421875 4.359375 -4.390625l0.3125 0.4375q-1.796875 1.578125 -2.578125 3.953125q-0.78125 2.375 -0.78125 5.421875q0 3.0625 0.78125 5.4375q0.78125 2.375 2.578125 3.953125l-0.3125 0.421875zm6.0281525 -0.421875q-2.4375 0 -3.84375 -0.78125q-1.390625 -0.78125 -1.390625 -2.53125q0 -1.0625 0.84375 -1.765625q0.859375 -0.703125 2.03125 -1.0q-0.953125 -0.296875 -0.953125 -1.171875q0 -0.734375 0.859375 -1.0625q-0.921875 -0.328125 -1.53125 -1.109375q-0.609375 -0.796875 -0.609375 -1.75q0 -1.75 1.25 -2.53125q1.25 -0.796875 3.34375 -0.796875l4.46875 0l0 0.578125l-1.921875 0.25q0.90625 0.34375 1.46875 1.046875q0.5625 0.703125 0.5625 1.453125q0 1.75 -1.1875 2.515625q-1.1875 0.765625 -3.390625 0.765625q-1.109375 0 -1.625 0.125q-0.515625 0.109375 -0.515625 0.515625q0 0.34375 0.515625 0.453125q0.515625 0.09375 1.625 0.125q2.296875 0.03125 3.75 0.90625q1.46875 0.859375 1.46875 2.453125q0 1.75 -1.40625 2.53125q-1.390625 0.78125 -3.8125 0.78125zm0 -8.75q1.703125 0 1.703125 -2.421875q0 -1.203125 -0.46875 -1.84375q-0.46875 -0.640625 -1.234375 -0.640625q-0.796875 0 -1.265625 0.625q-0.453125 0.625 -0.453125 1.859375q0 2.421875 1.71875 2.421875zm0 7.796875q1.109375 0 1.71875 -0.59375q0.625 -0.578125 0.625 -1.765625q0 -0.9375 -0.59375 -1.5625q-0.578125 -0.625 -1.59375 -0.8125l-1.0 -0.109375q-0.734375 0.3125 -1.125 0.921875q-0.390625 0.59375 -0.390625 1.5625q0 1.1875 0.625 1.765625q0.625 0.59375 1.734375 0.59375zm11.951523 1.375q-2.890625 -1.953125 -4.359375 -4.375q-1.453125 -2.421875 -1.453125 -5.4375q0 -3.0 1.453125 -5.421875q1.46875 -2.421875 4.359375 -4.390625l0.3125 0.4375q-1.796875 1.578125 -2.578125 3.953125q-0.78125 2.375 -0.78125 5.421875q0 3.0625 0.78125 5.4375q0.78125 2.375 2.578125 3.953125l-0.3125 0.421875zm1.8373566 -11.9375q0 -1.09375 -0.296875 -1.609375q-0.28125 -0.53125 -1.171875 -0.53125l-0.21875 0l0 -0.640625l2.125 0q0.71875 0 1.125 0.1875q0.421875 0.1875 0.65625 0.609375q1.09375 -1.0 3.109375 -1.0q2.03125 0 3.046875 0.953125q1.015625 0.9375 1.015625 2.96875l0 6.3125l-2.78125 0l0 -6.328125q0 -1.484375 -0.546875 -2.15625q-0.53125 -0.6875 -1.46875 -0.6875q-0.671875 0 -1.171875 0.1875q-0.5 0.171875 -0.796875 0.46875l0.0625 0.296875q0.09375 0.265625 0.09375 0.84375l0 7.375l-2.78125 0l0 -7.25zm10.139343 11.515625q1.78125 -1.578125 2.5625 -3.953125q0.78125 -2.375 0.78125 -5.4375q0 -3.046875 -0.78125 -5.421875q-0.78125 -2.375 -2.5625 -3.953125l0.296875 -0.4375q2.890625 1.96875 4.34375 4.390625q1.46875 2.421875 1.46875 5.421875q0 3.015625 -1.46875 5.4375q-1.453125 2.421875 -4.34375 4.375l-0.296875 -0.421875zm6.3770294 0q1.78125 -1.578125 2.5625 -3.953125q0.78125 -2.375 0.78125 -5.4375q0 -3.046875 -0.78125 -5.421875q-0.78125 -2.375 -2.5625 -3.953125l0.296875 -0.4375q2.890625 1.96875 4.34375 4.390625q1.4687653 2.421875 1.4687653 5.421875q0 3.015625 -1.4687653 5.4375q-1.453125 2.421875 -4.34375 4.375l-0.296875 -0.421875z" fill-rule="nonzero"/><path fill="#000000" fill-opacity="0.0" d="m473.02362 267.0l149.00787 0l0 42.015747l-149.00787 0z" fill-rule="evenodd"/><path fill="#e0e0e0" d="m488.06042 286.62537l-1.28125 0l0 -0.96875l1.28125 0l0 -0.5625q0 -1.8125 1.03125 -2.75q1.046875 -0.953125 3.125 -0.953125q0.609375 0 1.140625 0.109375q0.546875 0.09375 0.8125 0.265625q0.546875 0.3125 0.828125 0.90625l-0.859375 0.75q-0.3125 -0.515625 -0.78125 -0.78125q-0.46875 -0.28125 -1.03125 -0.28125q-0.734375 0 -1.109375 0.625q-0.375 0.609375 -0.375 2.109375l0 0.5625l2.765625 0l0 0.96875l-2.765625 0l0 9.0625l-2.78125 0l0 -9.0625zm12.0911255 13.75q-2.890625 -1.953125 -4.359375 -4.375q-1.453125 -2.421875 -1.453125 -5.4375q0 -3.0 1.453125 -5.421875q1.46875 -2.421875 4.359375 -4.390625l0.3125 0.4375q-1.796875 1.578125 -2.578125 3.953125q-0.78125 2.375 -0.78125 5.421875q0 3.0625 0.78125 5.4375q0.78125 2.375 2.578125 3.953125l-0.3125 0.421875zm1.8373718 -11.9375q0 -1.09375 -0.296875 -1.609375q-0.28125 -0.53125 -1.171875 -0.53125l-0.21875 0l0 -0.640625l2.125 0q0.71875 0 1.125 0.1875q0.421875 0.1875 0.65625 0.609375q1.09375 -1.0 3.109375 -1.0q2.03125 0 3.046875 0.953125q1.015625 0.9375 1.015625 2.96875l0 6.3125l-2.78125 0l0 -6.328125q0 -1.484375 -0.546875 -2.15625q-0.53125 -0.6875 -1.46875 -0.6875q-0.671875 0 -1.171875 0.1875q-0.5 0.171875 -0.796875 0.46875l0.0625 0.296875q0.09375 0.265625 0.09375 0.84375l0 7.375l-2.78125 0l0 -7.25zm10.139313 11.515625q1.78125 -1.578125 2.5625 -3.953125q0.78125 -2.375 0.78125 -5.4375q0 -3.046875 -0.78125 -5.421875q-0.78125 -2.375 -2.5625 -3.953125l0.296875 -0.4375q2.890625 1.96875 4.34375 4.390625q1.46875 2.421875 1.46875 5.421875q0 3.015625 -1.46875 5.4375q-1.453125 2.421875 -4.34375 4.375l-0.296875 -0.421875zm13.194031 -12.484375l0 -1.484375l11.71875 0l0 1.484375l-11.71875 0zm0 3.84375l0 -1.484375l11.71875 0l0 1.484375l-11.71875 0zm26.10907 4.796875q-2.0625 0 -3.6875 -0.96875q-1.609375 -0.984375 -2.484375 -2.6875q-0.859375 -1.71875 -0.859375 -3.796875q0 -2.09375 0.859375 -3.796875q0.875 -1.71875 2.484375 -2.6875q1.625 -0.984375 3.6875 -0.984375q2.0625 0 3.65625 0.984375q1.609375 0.96875 2.484375 2.6875q0.875 1.703125 0.875 3.796875q0 2.078125 -0.875 3.796875q-0.875 1.703125 -2.484375 2.6875q-1.59375 0.96875 -3.65625 0.96875zm0 -0.953125q1.9375 0 3.0 -1.6875q1.078125 -1.703125 1.078125 -4.8125q0 -3.125 -1.078125 -4.8125q-1.0625 -1.703125 -3.0 -1.703125q-1.9375 0 -3.0 1.703125q-1.046875 1.6875 -1.046875 4.8125q0 3.109375 1.046875 4.8125q1.0625 1.6875 3.0 1.6875zm14.133606 5.21875q-2.890625 -1.953125 -4.359375 -4.375q-1.453125 -2.421875 -1.453125 -5.4375q0 -3.0 1.453125 -5.421875q1.46875 -2.421875 4.359375 -4.390625l0.3125 0.4375q-1.796875 1.578125 -2.578125 3.953125q-0.78125 2.375 -0.78125 5.421875q0 3.0625 0.78125 5.4375q0.78125 2.375 2.578125 3.953125l-0.3125 0.421875zm6.028137 -0.421875q-2.4375 0 -3.84375 -0.78125q-1.390625 -0.78125 -1.390625 -2.53125q0 -1.0625 0.84375 -1.765625q0.859375 -0.703125 2.03125 -1.0q-0.953125 -0.296875 -0.953125 -1.171875q0 -0.734375 0.859375 -1.0625q-0.921875 -0.328125 -1.53125 -1.109375q-0.609375 -0.796875 -0.609375 -1.75q0 -1.75 1.25 -2.53125q1.25 -0.796875 3.34375 -0.796875l4.46875 0l0 0.578125l-1.921875 0.25q0.90625 0.34375 1.46875 1.046875q0.5625 0.703125 0.5625 1.453125q0 1.75 -1.1875 2.515625q-1.1875 0.765625 -3.390625 0.765625q-1.109375 0 -1.625 0.125q-0.515625 0.109375 -0.515625 0.515625q0 0.34375 0.515625 0.453125q0.515625 0.09375 1.625 0.125q2.296875 0.03125 3.75 0.90625q1.46875 0.859375 1.46875 2.453125q0 1.75 -1.40625 2.53125q-1.390625 0.78125 -3.8125 0.78125zm0 -8.75q1.703125 0 1.703125 -2.421875q0 -1.203125 -0.46875 -1.84375q-0.46875 -0.640625 -1.234375 -0.640625q-0.796875 0 -1.265625 0.625q-0.453125 0.625 -0.453125 1.859375q0 2.421875 1.71875 2.421875zm0 7.796875q1.109375 0 1.71875 -0.59375q0.625 -0.578125 0.625 -1.765625q0 -0.9375 -0.59375 -1.5625q-0.578125 -0.625 -1.59375 -0.8125l-1.0 -0.109375q-0.734375 0.3125 -1.125 0.921875q-0.390625 0.59375 -0.390625 1.5625q0 1.1875 0.625 1.765625q0.625 0.59375 1.734375 0.59375zm11.951538 1.375q-2.890625 -1.953125 -4.359375 -4.375q-1.453125 -2.421875 -1.453125 -5.4375q0 -3.0 1.453125 -5.421875q1.46875 -2.421875 4.359375 -4.390625l0.3125 0.4375q-1.796875 1.578125 -2.578125 3.953125q-0.78125 2.375 -0.78125 5.421875q0 3.0625 0.78125 5.4375q0.78125 2.375 2.578125 3.953125l-0.3125 0.421875zm1.8373413 -11.9375q0 -1.09375 -0.296875 -1.609375q-0.28125 -0.53125 -1.171875 -0.53125l-0.21875 0l0 -0.640625l2.125 0q0.71875 0 1.125 0.1875q0.421875 0.1875 0.65625 0.609375q1.09375 -1.0 3.109375 -1.0q2.03125 0 3.046875 0.953125q1.015625 0.9375 1.015625 2.96875l0 6.3125l-2.78125 0l0 -6.328125q0 -1.484375 -0.546875 -2.15625q-0.53125 -0.6875 -1.46875 -0.6875q-0.671875 0 -1.171875 0.1875q-0.5 0.171875 -0.796875 0.46875l0.0625 0.296875q0.09375 0.265625 0.09375 0.84375l0 7.375l-2.78125 0l0 -7.25zm10.139343 11.515625q1.78125 -1.578125 2.5625 -3.953125q0.78125 -2.375 0.78125 -5.4375q0 -3.046875 -0.78125 -5.421875q-0.78125 -2.375 -2.5625 -3.953125l0.296875 -0.4375q2.890625 1.96875 4.34375 4.390625q1.46875 2.421875 1.46875 5.421875q0 3.015625 -1.46875 5.4375q-1.453125 2.421875 -4.34375 4.375l-0.296875 -0.421875zm6.377014 0q1.78125 -1.578125 2.5625 -3.953125q0.78125 -2.375 0.78125 -5.4375q0 -3.046875 -0.78125 -5.421875q-0.78125 -2.375 -2.5625 -3.953125l0.296875 -0.4375q2.890625 1.96875 4.34375 4.390625q1.46875 2.421875 1.46875 5.421875q0 3.015625 -1.46875 5.4375q-1.453125 2.421875 -4.34375 4.375l-0.296875 -0.421875z" fill-rule="nonzero"/><path fill="#000000" fill-opacity="0.0" d="m815.9239 266.28873l149.00787 0l0 42.015747l-149.00787 0z" fill-rule="evenodd"/><path fill="#e0e0e0" d="m830.2275 285.9141l-1.28125 0l0 -0.96875l1.28125 0l0 -0.5625q0 -1.8125 1.03125 -2.75q1.046875 -0.953125 3.125 -0.953125q0.609375 0 1.140625 0.109375q0.546875 0.09375 0.8125 0.265625q0.546875 0.3125 0.828125 0.90625l-0.859375 0.75q-0.3125 -0.515625 -0.78125 -0.78125q-0.46875 -0.28125 -1.03125 -0.28125q-0.734375 0 -1.109375 0.625q-0.375 0.609375 -0.375 2.109375l0 0.5625l2.765625 0l0 0.96875l-2.765625 0l0 9.0625l-2.78125 0l0 -9.0625zm12.0911255 13.75q-2.890625 -1.953125 -4.359375 -4.375q-1.453125 -2.421875 -1.453125 -5.4375q0 -3.0 1.453125 -5.421875q1.46875 -2.421875 4.359375 -4.390625l0.3125 0.4375q-1.796875 1.578125 -2.578125 3.953125q-0.78125 2.375 -0.78125 5.421875q0 3.0625 0.78125 5.4375q0.78125 2.375 2.578125 3.953125l-0.3125 0.421875zm1.8373413 -11.9375q0 -1.09375 -0.296875 -1.609375q-0.28125 -0.53125 -1.171875 -0.53125l-0.21875 0l0 -0.640625l2.125 0q0.71875 0 1.125 0.1875q0.421875 0.1875 0.65625 0.609375q1.09375 -1.0 3.109375 -1.0q2.03125 0 3.046875 0.953125q1.015625 0.9375 1.015625 2.96875l0 6.3125l-2.78125 0l0 -6.328125q0 -1.484375 -0.546875 -2.15625q-0.53125 -0.6875 -1.46875 -0.6875q-0.671875 0 -1.171875 0.1875q-0.5 0.171875 -0.796875 0.46875l0.0625 0.296875q0.09375 0.265625 0.09375 0.84375l0 7.375l-2.78125 0l0 -7.25zm10.139343 11.515625q1.78125 -1.578125 2.5625 -3.953125q0.78125 -2.375 0.78125 -5.4375q0 -3.046875 -0.78125 -5.421875q-0.78125 -2.375 -2.5625 -3.953125l0.296875 -0.4375q2.890625 1.96875 4.34375 4.390625q1.46875 2.421875 1.46875 5.421875q0 3.015625 -1.46875 5.4375q-1.453125 2.421875 -4.34375 4.375l-0.296875 -0.421875zm13.194031 -12.484375l0 -1.484375l11.71875 0l0 1.484375l-11.71875 0zm0 3.84375l0 -1.484375l11.71875 0l0 1.484375l-11.71875 0z" fill-rule="nonzero"/><path fill="#e0e0e0" d="m886.7859 294.9766l0 -2.578125l2.96875 0q-2.71875 -2.84375 -2.71875 -6.140625q0 -2.875 1.9375 -4.84375q1.953125 -1.96875 5.34375 -1.96875q3.359375 0 5.3125 1.96875q1.96875 1.953125 1.96875 4.84375q0 3.296875 -2.71875 6.140625l2.96875 0l0 2.578125l-6.984375 0l0 -2.453125q1.75 -0.65625 2.65625 -2.125q0.90625 -1.46875 0.90625 -3.390625q0 -1.96875 -1.046875 -3.4375q-1.03125 -1.484375 -3.0625 -1.484375q-2.015625 0 -3.0625 1.46875q-1.03125 1.46875 -1.03125 3.453125q0 1.921875 0.890625 3.390625q0.90625 1.46875 2.671875 2.125l0 2.453125l-7.0 0z" fill-rule="nonzero"/><path fill="#e0e0e0" d="m909.19836 299.6641q-2.890625 -1.953125 -4.359375 -4.375q-1.453125 -2.421875 -1.453125 -5.4375q0 -3.0 1.453125 -5.421875q1.46875 -2.421875 4.359375 -4.390625l0.3125 0.4375q-1.796875 1.578125 -2.578125 3.953125q-0.78125 2.375 -0.78125 5.421875q0 3.0625 0.78125 5.4375q0.78125 2.375 2.578125 3.953125l-0.3125 0.421875zm6.0281982 -0.421875q-2.4375 0 -3.84375 -0.78125q-1.390625 -0.78125 -1.390625 -2.53125q0 -1.0625 0.84375 -1.765625q0.859375 -0.703125 2.03125 -1.0q-0.953125 -0.296875 -0.953125 -1.171875q0 -0.734375 0.859375 -1.0625q-0.921875 -0.328125 -1.53125 -1.109375q-0.609375 -0.796875 -0.609375 -1.75q0 -1.75 1.25 -2.53125q1.25 -0.796875 3.34375 -0.796875l4.46875 0l0 0.578125l-1.921875 0.25q0.90625 0.34375 1.46875 1.046875q0.5625 0.703125 0.5625 1.453125q0 1.75 -1.1875 2.515625q-1.1875 0.765625 -3.390625 0.765625q-1.109375 0 -1.625 0.125q-0.515625 0.109375 -0.515625 0.515625q0 0.34375 0.515625 0.453125q0.515625 0.09375 1.625 0.125q2.296875 0.03125 3.75 0.90625q1.46875 0.859375 1.46875 2.453125q0 1.75 -1.40625 2.53125q-1.390625 0.78125 -3.8125 0.78125zm0 -8.75q1.703125 0 1.703125 -2.421875q0 -1.203125 -0.46875 -1.84375q-0.46875 -0.640625 -1.234375 -0.640625q-0.796875 0 -1.265625 0.625q-0.453125 0.625 -0.453125 1.859375q0 2.421875 1.71875 2.421875zm0 7.796875q1.109375 0 1.71875 -0.59375q0.625 -0.578125 0.625 -1.765625q0 -0.9375 -0.59375 -1.5625q-0.578125 -0.625 -1.59375 -0.8125l-1.0 -0.109375q-0.734375 0.3125 -1.125 0.921875q-0.390625 0.59375 -0.390625 1.5625q0 1.1875 0.625 1.765625q0.625 0.59375 1.734375 0.59375zm11.951477 1.375q-2.890625 -1.953125 -4.359375 -4.375q-1.453125 -2.421875 -1.453125 -5.4375q0 -3.0 1.453125 -5.421875q1.46875 -2.421875 4.359375 -4.390625l0.3125 0.4375q-1.796875 1.578125 -2.578125 3.953125q-0.78125 2.375 -0.78125 5.421875q0 3.0625 0.78125 5.4375q0.78125 2.375 2.578125 3.953125l-0.3125 0.421875zm1.8374023 -11.9375q0 -1.09375 -0.296875 -1.609375q-0.28125 -0.53125 -1.171875 -0.53125l-0.21875 0l0 -0.640625l2.125 0q0.71875 0 1.125 0.1875q0.421875 0.1875 0.65625 0.609375q1.09375 -1.0 3.109375 -1.0q2.03125 0 3.046875 0.953125q1.015625 0.9375 1.015625 2.96875l0 6.3125l-2.78125 0l0 -6.328125q0 -1.484375 -0.546875 -2.15625q-0.53125 -0.6875 -1.46875 -0.6875q-0.671875 0 -1.171875 0.1875q-0.5 0.171875 -0.796875 0.46875l0.0625 0.296875q0.09375 0.265625 0.09375 0.84375l0 7.375l-2.78125 0l0 -7.25zm10.139343 11.515625q1.78125 -1.578125 2.5625 -3.953125q0.78125 -2.375 0.78125 -5.4375q0 -3.046875 -0.78125 -5.421875q-0.78125 -2.375 -2.5625 -3.953125l0.296875 -0.4375q2.890625 1.96875 4.34375 4.390625q1.46875 2.421875 1.46875 5.421875q0 3.015625 -1.46875 5.4375q-1.453125 2.421875 -4.34375 4.375l-0.296875 -0.421875zm6.377014 0q1.78125 -1.578125 2.5625 -3.953125q0.78125 -2.375 0.78125 -5.4375q0 -3.046875 -0.78125 -5.421875q-0.78125 -2.375 -2.5625 -3.953125l0.296875 -0.4375q2.890625 1.96875 4.34375 4.390625q1.46875 2.421875 1.46875 5.421875q0 3.015625 -1.46875 5.4375q-1.453125 2.421875 -4.34375 4.375l-0.296875 -0.421875z" fill-rule="nonzero"/><path fill="#000000" fill-opacity="0.0" d="m278.0525 233.92126l27.968506 0l0 42.015747l-27.968506 0z" fill-rule="evenodd"/><path fill="#e0e0e0" d="m288.5525 254.49751q0 -0.953125 -0.265625 -1.40625q-0.25 -0.453125 -1.03125 -0.453125l-0.1875 0l0 -0.5625l1.84375 0q0.640625 0 1.0 0.15625q0.375 0.15625 0.578125 0.53125q0.953125 -0.875 2.71875 -0.875q1.765625 0 2.65625 0.828125q0.890625 0.828125 0.890625 2.609375l0 5.5156097l-2.421875 0l0 -5.5468597q0 -1.28125 -0.484375 -1.875q-0.46875 -0.59375 -1.296875 -0.59375q-0.578125 0 -1.015625 0.15625q-0.4375 0.15625 -0.703125 0.421875l0.0625 0.25q0.078125 0.234375 0.078125 0.734375l0 6.4531097l-2.421875 0l0 -6.3437347z" fill-rule="nonzero"/><path fill="#000000" fill-opacity="0.0" d="m622.0525 233.92126l27.968506 0l0 42.015747l-27.968506 0z" fill-rule="evenodd"/><path fill="#e0e0e0" d="m632.5525 254.49751q0 -0.953125 -0.265625 -1.40625q-0.25 -0.453125 -1.03125 -0.453125l-0.1875 0l0 -0.5625l1.84375 0q0.640625 0 1.0 0.15625q0.375 0.15625 0.578125 0.53125q0.953125 -0.875 2.71875 -0.875q1.765625 0 2.65625 0.828125q0.890625 0.828125 0.890625 2.609375l0 5.5156097l-2.421875 0l0 -5.5468597q0 -1.28125 -0.484375 -1.875q-0.46875 -0.59375 -1.296875 -0.59375q-0.578125 0 -1.015625 0.15625q-0.4375 0.15625 -0.703125 0.421875l0.0625 0.25q0.078125 0.234375 0.078125 0.734375l0 6.4531097l-2.421875 0l0 -6.3437347z" fill-rule="nonzero"/><path fill="#000000" fill-opacity="0.0" d="m964.93176 233.92126l27.968506 0l0 42.015747l-27.968506 0z" fill-rule="evenodd"/><path fill="#e0e0e0" d="m975.43176 254.49751q0 -0.953125 -0.265625 -1.40625q-0.25 -0.453125 -1.03125 -0.453125l-0.1875 0l0 -0.5625l1.84375 0q0.640625 0 1.0 0.15625q0.375 0.15625 0.578125 0.53125q0.953125 -0.875 2.71875 -0.875q1.765625 0 2.65625 0.828125q0.890625 0.828125 0.890625 2.609375l0 5.5156097l-2.421875 0l0 -5.5468597q0 -1.28125 -0.484375 -1.875q-0.46875 -0.59375 -1.296875 -0.59375q-0.578125 0 -1.015625 0.15625q-0.4375 0.15625 -0.703125 0.421875l0.0625 0.25q0.078125 0.234375 0.078125 0.734375l0 6.4531097l-2.421875 0l0 -6.3437347z" fill-rule="nonzero"/><path fill="#000000" fill-opacity="0.0" d="m78.05249 249.92126l42.740158 0l0 42.015747l-42.740158 0z" fill-rule="evenodd"/><path fill="#e0e0e0" d="m91.790375 270.4975q0 -0.953125 -0.265625 -1.40625q-0.25 -0.453125 -1.03125 -0.453125l-0.1875 0l0 -0.5625l1.84375 0q0.640625 0 1.0 0.15625q0.375 0.15625 0.578125 0.53125q0.953125 -0.875 2.71875 -0.875q1.765625 0 2.65625 0.828125q0.890625 0.828125 0.890625 2.609375l0 5.515625l-2.421875 0l0 -5.546875q0 -1.28125 -0.484375 -1.875q-0.46875 -0.59375 -1.296875 -0.59375q-0.578125 0 -1.015625 0.15625q-0.4375 0.15625 -0.703125 0.421875l0.0625 0.25q0.078125 0.234375 0.078125 0.734375l0 6.453125l-2.421875 0l0 -6.34375z" fill-rule="nonzero"/><path fill="#e0e0e0" d="m104.78334 284.09125q-3.234375 0 -3.234375 -4.359375q0 -4.34375 3.234375 -4.34375q3.234375 0 3.234375 4.34375q0 4.359375 -3.234375 4.359375zm0 -0.5625q0.78125 0 1.140625 -0.90625q0.359375 -0.90625 0.359375 -2.890625q0 -1.96875 -0.359375 -2.875q-0.359375 -0.90625 -1.140625 -0.90625q-0.78125 0 -1.140625 0.90625q-0.34375 0.90625 -0.34375 2.875q0 1.984375 0.34375 2.890625q0.359375 0.90625 1.140625 0.90625z" fill-rule="nonzero"/><path fill="#000000" fill-opacity="0.0" d="m430.0525 249.92126l45.448822 0l0 42.015747l-45.448822 0z" fill-rule="evenodd"/><path fill="#e0e0e0" d="m445.1447 270.4975q0 -0.953125 -0.265625 -1.40625q-0.25 -0.453125 -1.03125 -0.453125l-0.1875 0l0 -0.5625l1.84375 0q0.640625 0 1.0 0.15625q0.375 0.15625 0.578125 0.53125q0.953125 -0.875 2.71875 -0.875q1.765625 0 2.65625 0.828125q0.890625 0.828125 0.890625 2.609375l0 5.515625l-2.421875 0l0 -5.546875q0 -1.28125 -0.484375 -1.875q-0.46875 -0.59375 -1.296875 -0.59375q-0.578125 0 -1.015625 0.15625q-0.4375 0.15625 -0.703125 0.421875l0.0625 0.25q0.078125 0.234375 0.078125 0.734375l0 6.453125l-2.421875 0l0 -6.34375z" fill-rule="nonzero"/><path fill="#e0e0e0" d="m458.13766 284.09125q-3.234375 0 -3.234375 -4.359375q0 -4.34375 3.234375 -4.34375q3.234375 0 3.234375 4.34375q0 4.359375 -3.234375 4.359375zm0 -0.5625q0.78125 0 1.140625 -0.90625q0.359375 -0.90625 0.359375 -2.890625q0 -1.96875 -0.359375 -2.875q-0.359375 -0.90625 -1.140625 -0.90625q-0.78125 0 -1.140625 0.90625q-0.34375 0.90625 -0.34375 2.875q0 1.984375 0.34375 2.890625q0.359375 0.90625 1.140625 0.90625z" fill-rule="nonzero"/><path fill="#000000" fill-opacity="0.0" d="m774.0525 249.92126l41.858276 0l0 42.015747l-41.858276 0z" fill-rule="evenodd"/><path fill="#e0e0e0" d="m787.3494 270.4975q0 -0.953125 -0.265625 -1.40625q-0.25 -0.453125 -1.03125 -0.453125l-0.1875 0l0 -0.5625l1.84375 0q0.640625 0 1.0 0.15625q0.375 0.15625 0.578125 0.53125q0.953125 -0.875 2.71875 -0.875q1.765625 0 2.65625 0.828125q0.890625 0.828125 0.890625 2.609375l0 5.515625l-2.421875 0l0 -5.546875q0 -1.28125 -0.484375 -1.875q-0.46875 -0.59375 -1.296875 -0.59375q-0.578125 0 -1.015625 0.15625q-0.4375 0.15625 -0.703125 0.421875l0.0625 0.25q0.078125 0.234375 0.078125 0.734375l0 6.453125l-2.421875 0l0 -6.34375z" fill-rule="nonzero"/><path fill="#e0e0e0" d="m800.3424 284.09125q-3.234375 0 -3.234375 -4.359375q0 -4.34375 3.234375 -4.34375q3.234375 0 3.234375 4.34375q0 4.359375 -3.234375 4.359375zm0 -0.5625q0.78125 0 1.140625 -0.90625q0.359375 -0.90625 0.359375 -2.890625q0 -1.96875 -0.359375 -2.875q-0.359375 -0.90625 -1.140625 -0.90625q-0.78125 0 -1.140625 0.90625q-0.34375 0.90625 -0.34375 2.875q0 1.984375 0.34375 2.890625q0.359375 0.90625 1.140625 0.90625z" fill-rule="nonzero"/></g></svg>