<svg version="1.1" viewBox="0.0 0.0 811.8005249343832 191.51443569553805" fill="none" stroke="none" stroke-linecap="square" stroke-miterlimit="10" xmlns:xlink="http://www.w3.org/1999/xlink" xmlns="http://www.w3.org/2000/svg"><clipPath id="p.0"><path d="m0 0l811.80054 0l0 191.51443l-811.80054 0l0 -191.51443z" clip-rule="nonzero"/></clipPath><g clip-path="url(#p.0)"><path fill="#000000" fill-opacity="0.0" d="m0 0l811.80054 0l0 191.51443l-811.80054 0z" fill-rule="evenodd"/><path fill="#000000" fill-opacity="0.0" d="m488.5748 59.759876l53.070892 0" fill-rule="evenodd"/><path stroke="#e0e0e0" stroke-width="3.0" stroke-linejoin="round" stroke-linecap="butt" d="m488.5748 59.75988l35.070892 0" fill-rule="evenodd"/><path fill="#e0e0e0" stroke="#e0e0e0" stroke-width="3.0" stroke-linecap="butt" d="m523.6457 64.71507l13.614258 -4.9551926l-13.614258 -4.9552z" fill-rule="evenodd"/><path fill="#000000" fill-opacity="0.0" d="m488.5748 139.2192l53.070892 0" fill-rule="evenodd"/><path stroke="#e0e0e0" stroke-width="3.0" stroke-linejoin="round" stroke-linecap="butt" d="m506.5748 139.2192l35.070892 0" fill-rule="evenodd"/><path fill="#e0e0e0" stroke="#e0e0e0" stroke-width="3.0" stroke-linecap="butt" d="m506.5748 134.26399l-13.614288 4.9552l13.614288 4.9552z" fill-rule="evenodd"/><path fill="#000000" fill-opacity="0.0" d="m147.50919 53.097115l107.14961 0" fill-rule="evenodd"/><path stroke="#e0e0e0" stroke-width="3.0" stroke-linejoin="round" stroke-linecap="butt" d="m147.50919 53.097115l89.14961 0" fill-rule="evenodd"/><path fill="#e0e0e0" stroke="#e0e0e0" stroke-width="3.0" stroke-linecap="butt" d="m236.6588 58.05231l13.614288 -4.9551964l-13.614288 -4.9552z" fill-rule="evenodd"/><path fill="#000000" fill-opacity="0.0" d="m146.07349 87.561676l105.6378 0" fill-rule="evenodd"/><path stroke="#e0e0e0" stroke-width="3.0" stroke-linejoin="round" stroke-linecap="butt" d="m164.07349 87.561676l87.6378 0" fill-rule="evenodd"/><path fill="#e0e0e0" stroke="#e0e0e0" stroke-width="3.0" stroke-linecap="butt" d="m164.07349 82.60648l-13.614288 4.9551926l13.614288 4.9552z" fill-rule="evenodd"/><path fill="#000000" fill-opacity="0.0" d="m15.144357 24.880577l130.92912 0l0 90.89764l-130.92912 0z" fill-rule="evenodd"/><path stroke="#e0e0e0" stroke-width="3.0" stroke-linejoin="round" stroke-linecap="butt" d="m15.144357 24.880577l130.92912 0l0 90.89764l-130.92912 0z" fill-rule="evenodd"/><path fill="#e0e0e0" d="m65.206375 79.15064q-1.7031288 0 -3.0781288 -0.53125q-1.359375 -0.546875 -2.328125 -1.609375q-0.953125 -1.0625 -1.484375 -2.65625q-0.515625 -1.609375 -0.515625 -3.734375q0 -2.125 0.515625 -3.765625q0.53125 -1.640625 1.484375 -2.75q0.96875 -1.125 2.328125 -1.703125q1.375 -0.578125 3.0781288 -0.578125q2.328125 0 3.84375 0.953125q1.515625 0.953125 2.421875 2.984375l-3.140625 1.640625q-0.328125 -1.0625 -1.046875 -1.6875q-0.703125 -0.640625 -2.078125 -0.640625q-1.5937538 0 -2.5781288 1.046875q-0.96875 1.03125 -0.96875 3.03125l0 2.6875q0 1.984375 0.96875 3.03125q0.984375 1.046875 2.5781288 1.046875q1.34375 0 2.140625 -0.734375q0.8125 -0.734375 1.203125 -1.765625l2.96875 1.734375q-0.9375 1.921875 -2.46875 2.96875q-1.515625 1.03125 -3.84375 1.03125zm8.858322 -0.28125l0 -16.75l7.9218674 0q1.171875 0 2.109375 0.40625q0.9375 0.390625 1.59375 1.09375q0.671875 0.6875 1.03125 1.6875q0.359375 0.984375 0.359375 2.15625q0 1.203125 -0.359375 2.1875q-0.359375 0.984375 -1.03125 1.6875q-0.65625 0.6875 -1.59375 1.09375q-0.9375 0.390625 -2.109375 0.390625l-4.2656174 0l0 6.046875l-3.65625 0zm3.65625 -9.21875l3.8437424 0q0.8125 0 1.28125 -0.421875q0.46875 -0.421875 0.46875 -1.234375l0 -1.046875q0 -0.828125 -0.46875 -1.234375q-0.46875 -0.421875 -1.28125 -0.421875l-3.8437424 0l0 4.359375zm15.540825 -7.53125l0 10.265625q0 1.78125 0.703125 2.65625q0.703125 0.875 2.328125 0.875q1.625 0 2.328125 -0.875q0.703125 -0.875 0.703125 -2.65625l0 -10.265625l3.546875 0l0 9.890625q0 1.84375 -0.359375 3.203125q-0.34375 1.359375 -1.140625 2.234375q-0.78125 0.875 -2.03125 1.296875q-1.25 0.40625 -3.046875 0.40625q-1.796875 0 -3.046875 -0.40625q-1.25 -0.421875 -2.046875 -1.296875q-0.78125 -0.875 -1.140625 -2.234375q-0.34375 -1.359375 -0.34375 -3.203125l0 -9.890625l3.546875 0z" fill-rule="nonzero"/><path fill="#000000" fill-opacity="0.0" d="m250.71654 16.29265l237.85826 0l0 158.92914l-237.85826 0z" fill-rule="evenodd"/><path stroke="#e0e0e0" stroke-width="3.0" stroke-linejoin="round" stroke-linecap="butt" d="m250.71654 16.29265l237.85826 0l0 158.92914l-237.85826 0z" fill-rule="evenodd"/><path fill="#000000" fill-opacity="0.0" d="m15.144357 121.34252l130.92912 0l0 45.291344l-130.92912 0z" fill-rule="evenodd"/><path stroke="#e0e0e0" stroke-width="3.0" stroke-linejoin="round" stroke-linecap="butt" d="m15.144357 121.34252l130.92912 0l0 45.291344l-130.92912 0z" fill-rule="evenodd"/><path fill="#e0e0e0" d="m54.478405 152.80943q-1.703125 0 -3.078125 -0.53125q-1.359375 -0.546875 -2.328125 -1.609375q-0.953125 -1.0625 -1.484375 -2.65625q-0.515625 -1.609375 -0.515625 -3.734375q0 -2.125 0.515625 -3.765625q0.53125 -1.640625 1.484375 -2.75q0.96875 -1.125 2.328125 -1.703125q1.375 -0.578125 3.078125 -0.578125q2.328125 0 3.84375 0.953125q1.515625 0.953125 2.421875 2.984375l-3.140625 1.640625q-0.328125 -1.0625 -1.046875 -1.6875q-0.703125 -0.640625 -2.078125 -0.640625q-1.59375 0 -2.578125 1.046875q-0.96875 1.03125 -0.96875 3.03125l0 2.6875q0 1.984375 0.96875 3.03125q0.984375 1.046875 2.578125 1.046875q1.34375 0 2.140625 -0.734375q0.8125 -0.734375 1.203125 -1.765625l2.96875 1.734375q-0.9375 1.921875 -2.46875 2.96875q-1.515625 1.03125 -3.84375 1.03125zm17.983326 -0.28125q-0.953125 0 -1.59375 -0.59375q-0.640625 -0.609375 -0.8125 -1.609375l-0.140625 0q-0.28125 1.21875 -1.265625 1.859375q-0.984375 0.625 -2.421875 0.625q-1.90625 0 -2.9218788 -1.0q-1.0 -1.015625 -1.0 -2.671875q0 -1.984375 1.453125 -2.953125q1.4531288 -0.96875 3.9531288 -0.96875l1.984375 0l0 -0.796875q0 -0.921875 -0.484375 -1.453125q-0.46875 -0.546875 -1.59375 -0.546875q-1.0625 0 -1.6875 0.46875q-0.625 0.453125 -1.03125 1.03125l-2.1093788 -1.875q0.765625 -1.125 1.9218788 -1.765625q1.171875 -0.640625 3.171875 -0.640625q2.6875 0 4.03125 1.1875q1.34375 1.171875 1.34375 3.421875l0 5.515625l1.171875 0l0 2.765625l-1.96875 0zm-4.921875 -2.1875q0.890625 0 1.515625 -0.375q0.640625 -0.390625 0.640625 -1.25l0 -1.484375l-1.71875 0q-2.09375 0 -2.09375 1.40625l0 0.359375q0 0.703125 0.421875 1.03125q0.4375 0.3125 1.234375 0.3125zm14.359077 2.46875q-1.421875 0 -2.53125 -0.453125q-1.0937424 -0.46875 -1.8437424 -1.328125q-0.75 -0.859375 -1.140625 -2.078125q-0.375 -1.21875 -0.375 -2.734375q0 -1.515625 0.375 -2.71875q0.390625 -1.21875 1.140625 -2.078125q0.75 -0.859375 1.8437424 -1.3125q1.109375 -0.46875 2.53125 -0.46875q1.90625 0 3.1875 0.875q1.296875 0.859375 1.84375 2.421875l-2.875 1.234375q-0.171875 -0.71875 -0.703125 -1.21875q-0.515625 -0.5 -1.453125 -0.5q-1.09375 0 -1.640625 0.71875q-0.546875 0.703125 -0.546875 1.890625l0 2.359375q0 1.203125 0.546875 1.90625q0.546875 0.6875 1.640625 0.6875q0.953125 0 1.515625 -0.515625q0.5625 -0.515625 0.828125 -1.359375l2.765625 1.203125q-0.625 1.796875 -1.9375 2.640625q-1.3125 0.828125 -3.171875 0.828125zm7.314209 -18.046875l3.546875 0l0 7.296875l0.15625 0q0.328125 -0.984375 1.171875 -1.703125q0.84375 -0.71875 2.328125 -0.71875q1.9375 0 2.9375 1.296875q1.0 1.296875 1.0 3.703125l0 7.890625l-3.5625 0l0 -7.609375q0 -1.21875 -0.390625 -1.8125q-0.375 -0.59375 -1.359375 -0.59375q-0.421875 0 -0.84375 0.109375q-0.40625 0.109375 -0.734375 0.359375q-0.3125 0.234375 -0.515625 0.59375q-0.1875 0.34375 -0.1875 0.796875l0 8.15625l-3.546875 0l0 -17.765625zm19.553955 18.046875q-1.4375 0 -2.5625 -0.453125q-1.125 -0.46875 -1.90625 -1.328125q-0.78125 -0.859375 -1.1875 -2.078125q-0.390625 -1.21875 -0.390625 -2.734375q0 -1.484375 0.375 -2.6875q0.390625 -1.21875 1.140625 -2.078125q0.765625 -0.875 1.875 -1.34375q1.109375 -0.46875 2.515625 -0.46875q1.5625 0 2.671875 0.53125q1.125 0.53125 1.828125 1.421875q0.703125 0.875 1.03125 2.046875q0.328125 1.15625 0.328125 2.4375l0 1.046875l-8.09375 0l0 0.203125q0 1.25 0.671875 1.984375q0.671875 0.71875 2.109375 0.71875q1.109375 0 1.796875 -0.4375q0.703125 -0.453125 1.3125 -1.078125l1.765625 2.21875q-0.828125 0.984375 -2.1875 1.53125q-1.359375 0.546875 -3.09375 0.546875zm-0.0625 -10.546875q-1.078125 0 -1.703125 0.703125q-0.609375 0.703125 -0.609375 1.875l0 0.203125l4.421875 0l0 -0.21875q0 -1.15625 -0.515625 -1.859375q-0.515625 -0.703125 -1.59375 -0.703125z" fill-rule="nonzero"/><path fill="#000000" fill-opacity="0.0" d="m541.63257 16.29265l255.02362 0l0 158.92914l-255.02362 0z" fill-rule="evenodd"/><path stroke="#e0e0e0" stroke-width="3.0" stroke-linejoin="round" stroke-linecap="butt" d="m541.63257 16.29265l255.02362 0l0 158.92914l-255.02362 0z" fill-rule="evenodd"/><path fill="#e0e0e0" d="m632.8621 104.57847q-2.203125 0 -3.75 -0.75q-1.53125 -0.75 -2.609375 -1.953125l2.40625 -2.421875q1.703125 1.921875 4.203125 1.921875q1.34375 0 1.984375 -0.546875q0.65625 -0.5625 0.65625 -1.46875q0 -0.703125 -0.390625 -1.171875q-0.375 -0.46875 -1.5625 -0.640625l-1.65625 -0.203125q-2.65625 -0.34375 -3.890625 -1.609375q-1.234375 -1.28125 -1.234375 -3.390625q0 -1.125 0.421875 -2.0625q0.4375 -0.9375 1.234375 -1.609375q0.8125 -0.671875 1.96875 -1.046875q1.171875 -0.375 2.65625 -0.375q1.890625 0 3.328125 0.609375q1.453125 0.59375 2.484375 1.75l-2.421875 2.453125q-0.609375 -0.703125 -1.46875 -1.140625q-0.84375 -0.453125 -2.140625 -0.453125q-1.21875 0 -1.828125 0.4375q-0.59375 0.4375 -0.59375 1.203125q0 0.859375 0.46875 1.25q0.46875 0.375 1.53125 0.546875l1.65625 0.265625q2.578125 0.40625 3.828125 1.59375q1.25 1.1875 1.25 3.375q0 1.203125 -0.4375 2.21875q-0.421875 1.0 -1.25 1.71875q-0.828125 0.71875 -2.0625 1.109375q-1.21875 0.390625 -2.78125 0.390625zm13.668457 -0.28125q-1.859375 0 -2.8125 -0.9375q-0.9375 -0.9375 -0.9375 -2.734375l0 -6.171875l-1.78125 0l0 -2.75l0.890625 0q0.71875 0 0.984375 -0.34375q0.265625 -0.359375 0.265625 -1.0l0 -2.078125l3.1875 0l0 3.421875l2.5 0l0 2.75l-2.5 0l0 7.078125l2.3125 0l0 2.765625l-2.109375 0zm9.783447 0.28125q-1.390625 0 -2.484375 -0.453125q-1.09375 -0.453125 -1.84375 -1.3125q-0.75 -0.875 -1.171875 -2.09375q-0.40625 -1.21875 -0.40625 -2.734375q0 -1.515625 0.40625 -2.734375q0.421875 -1.21875 1.171875 -2.0625q0.75 -0.859375 1.84375 -1.3125q1.09375 -0.46875 2.484375 -0.46875q1.390625 0 2.484375 0.46875q1.09375 0.453125 1.84375 1.3125q0.765625 0.84375 1.171875 2.0625q0.40625 1.21875 0.40625 2.734375q0 1.515625 -0.40625 2.734375q-0.40625 1.21875 -1.171875 2.09375q-0.75 0.859375 -1.84375 1.3125q-1.09375 0.453125 -2.484375 0.453125zm0 -2.796875q1.0625 0 1.625 -0.640625q0.578125 -0.65625 0.578125 -1.859375l0 -2.5625q0 -1.203125 -0.578125 -1.84375q-0.5625 -0.65625 -1.625 -0.65625q-1.046875 0 -1.625 0.65625q-0.578125 0.640625 -0.578125 1.84375l0 2.5625q0 1.203125 0.578125 1.859375q0.578125 0.640625 1.625 0.640625zm8.426636 2.515625l0 -12.59375l3.546875 0l0 2.734375l0.125 0q0.09375 -0.53125 0.328125 -1.015625q0.25 -0.5 0.640625 -0.875q0.40625 -0.390625 0.953125 -0.609375q0.546875 -0.234375 1.296875 -0.234375l0.625 0l0 3.3125l-0.890625 0q-1.5625 0 -2.328125 0.40625q-0.75 0.40625 -0.75 1.5l0 7.375l-3.546875 0zm18.672424 0q-0.953125 0 -1.59375 -0.59375q-0.640625 -0.609375 -0.8125 -1.609375l-0.140625 0q-0.28125 1.21875 -1.265625 1.859375q-0.984375 0.625 -2.421875 0.625q-1.90625 0 -2.921875 -1.0q-1.0 -1.015625 -1.0 -2.671875q0 -1.984375 1.453125 -2.953125q1.453125 -0.96875 3.953125 -0.96875l1.984375 0l0 -0.796875q0 -0.921875 -0.484375 -1.453125q-0.46875 -0.546875 -1.59375 -0.546875q-1.0625 0 -1.6875 0.46875q-0.625 0.453125 -1.03125 1.03125l-2.109375 -1.875q0.765625 -1.125 1.921875 -1.765625q1.171875 -0.640625 3.171875 -0.640625q2.6875 0 4.03125 1.1875q1.34375 1.171875 1.34375 3.421875l0 5.515625l1.171875 0l0 2.765625l-1.96875 0zm-4.921875 -2.1875q0.890625 0 1.515625 -0.375q0.640625 -0.390625 0.640625 -1.25l0 -1.484375l-1.71875 0q-2.09375 0 -2.09375 1.40625l0 0.359375q0 0.703125 0.421875 1.03125q0.4375 0.3125 1.234375 0.3125zm20.92163 3.09375q0 1.015625 -0.34375 1.78125q-0.34375 0.765625 -1.140625 1.296875q-0.78125 0.546875 -2.09375 0.828125q-1.3125 0.28125 -3.234375 0.28125q-1.625 0 -2.765625 -0.203125q-1.140625 -0.203125 -1.859375 -0.578125q-0.703125 -0.375 -1.03125 -0.921875q-0.3125 -0.53125 -0.3125 -1.234375q0 -1.046875 0.625 -1.65625q0.625 -0.59375 1.71875 -0.734375l0 -0.265625q-0.90625 -0.171875 -1.359375 -0.78125q-0.453125 -0.609375 -0.453125 -1.4375q0 -0.5 0.203125 -0.859375q0.203125 -0.375 0.515625 -0.65625q0.328125 -0.28125 0.75 -0.4375q0.4375 -0.171875 0.875 -0.265625l0 -0.109375q-1.15625 -0.515625 -1.703125 -1.4375q-0.546875 -0.9375 -0.546875 -2.15625q0 -1.921875 1.328125 -3.078125q1.328125 -1.171875 4.0625 -1.171875q1.25 0 2.140625 0.25l0 -0.484375q0 -1.015625 0.484375 -1.453125q0.5 -0.453125 1.40625 -0.453125l2.0 0l0 2.640625l-2.78125 0l0 0.15625q1.09375 0.515625 1.625 1.453125q0.53125 0.921875 0.53125 2.140625q0 1.890625 -1.34375 3.03125q-1.328125 1.140625 -4.0625 1.140625q-1.21875 0 -2.234375 -0.265625q-0.546875 0.359375 -0.546875 1.015625q0 0.453125 0.34375 0.703125q0.359375 0.25 1.171875 0.25l3.640625 0q2.3125 0 3.34375 0.96875q1.046875 0.953125 1.046875 2.703125zm-3.328125 0.484375q0 -0.546875 -0.4375 -0.84375q-0.421875 -0.28125 -1.5 -0.28125l-4.328125 0q-0.234375 0.234375 -0.34375 0.53125q-0.109375 0.3125 -0.109375 0.59375q0 0.703125 0.59375 1.015625q0.609375 0.328125 2.046875 0.328125l1.4375 0q1.4375 0 2.03125 -0.328125q0.609375 -0.3125 0.609375 -1.015625zm-3.4375 -8.1875q1.0625 0 1.578125 -0.4375q0.515625 -0.453125 0.515625 -1.28125l0 -0.296875q0 -0.828125 -0.515625 -1.265625q-0.515625 -0.453125 -1.578125 -0.453125q-1.046875 0 -1.5625 0.453125q-0.515625 0.4375 -0.515625 1.265625l0 0.296875q0 0.828125 0.515625 1.28125q0.515625 0.4375 1.5625 0.4375zm13.463318 7.078125q-1.4375 0 -2.5625 -0.453125q-1.125 -0.46875 -1.90625 -1.328125q-0.78125 -0.859375 -1.1875 -2.078125q-0.390625 -1.21875 -0.390625 -2.734375q0 -1.484375 0.375 -2.6875q0.390625 -1.21875 1.140625 -2.078125q0.765625 -0.875 1.875 -1.34375q1.109375 -0.46875 2.515625 -0.46875q1.5625 0 2.671875 0.53125q1.125 0.53125 1.828125 1.421875q0.703125 0.875 1.03125 2.046875q0.328125 1.15625 0.328125 2.4375l0 1.046875l-8.09375 0l0 0.203125q0 1.25 0.671875 1.984375q0.671875 0.71875 2.109375 0.71875q1.109375 0 1.796875 -0.4375q0.703125 -0.453125 1.3125 -1.078125l1.765625 2.21875q-0.828125 0.984375 -2.1875 1.53125q-1.359375 0.546875 -3.09375 0.546875zm-0.0625 -10.546875q-1.078125 0 -1.703125 0.703125q-0.609375 0.703125 -0.609375 1.875l0 0.203125l4.421875 0l0 -0.21875q0 -1.15625 -0.515625 -1.859375q-0.515625 -0.703125 -1.59375 -0.703125z" fill-rule="nonzero"/><path fill="#000000" fill-opacity="0.0" d="m379.7743 75.25328l81.921234 0l0 48.472443l-81.921234 0z" fill-rule="evenodd"/><path fill="#e0e0e0" d="m400.09897 107.29328l-3.65625 0l0 -16.75l7.953125 0q1.140625 0 2.078125 0.390625q0.9375 0.375 1.59375 1.09375q0.671875 0.703125 1.03125 1.6875q0.359375 0.984375 0.359375 2.171875q0 1.703125 -0.765625 2.984375q-0.75 1.265625 -2.28125 1.84375l3.28125 6.578125l-4.046875 0l-2.9375 -6.140625l-2.609375 0l0 6.140625zm3.84375 -9.21875q0.8125 0 1.28125 -0.421875q0.46875 -0.421875 0.46875 -1.234375l0 -1.046875q0 -0.828125 -0.46875 -1.234375q-0.46875 -0.421875 -1.28125 -0.421875l-3.84375 0l0 4.359375l3.84375 0zm19.00409 9.21875l-1.203125 -3.984375l-5.59375 0l-1.203125 3.984375l-3.6875 0l5.515625 -16.75l4.515625 0l5.4375 16.75l-3.78125 0zm-3.96875 -13.4375l-0.109375 0l-1.859375 6.359375l3.84375 0l-1.875 -6.359375zm22.611847 2.453125l-0.078125 0l-1.21875 2.4375l-3.265625 5.9375l-3.1875 -5.90625l-1.265625 -2.640625l-0.078125 0l0 11.15625l-3.4375 0l0 -16.75l3.875 0l4.09375 7.84375l0.046875 0l4.0625 -7.84375l3.890625 0l0 16.75l-3.4375 0l0 -10.984375z" fill-rule="nonzero"/><path stroke="#e0e0e0" stroke-width="3.0" stroke-linecap="butt" d="m250.71523 14.797112l0 161.92387" fill-rule="nonzero"/><path stroke="#e0e0e0" stroke-width="3.0" stroke-linecap="butt" d="m290.90945 14.797112l0 161.92387" fill-rule="nonzero"/><path stroke="#e0e0e0" stroke-width="3.0" stroke-linecap="butt" d="m361.2533 14.797112l0 161.92387" fill-rule="nonzero"/><path stroke="#e0e0e0" stroke-width="3.0" stroke-linecap="butt" d="m249.21654 16.295801l113.535446 0" fill-rule="nonzero"/><path stroke="#e0e0e0" stroke-width="3.0" stroke-linecap="butt" d="m249.21654 53.293175l113.535446 0" fill-rule="nonzero"/><path stroke="#e0e0e0" stroke-width="3.0" stroke-linecap="butt" d="m249.21654 93.93622l113.535446 0" fill-rule="nonzero"/><path stroke="#e0e0e0" stroke-width="3.0" stroke-linecap="butt" d="m249.21654 134.57927l113.535446 0" fill-rule="nonzero"/><path stroke="#e0e0e0" stroke-width="3.0" stroke-linecap="butt" d="m249.21654 175.2223l113.535446 0" fill-rule="nonzero"/><path fill="#e0e0e0" d="m270.81006 38.853237q-2.5625 0 -2.5625 -3.734375q0 -3.734373 2.5625 -3.734373q2.5625 0 2.5625 3.734373q0 3.734375 -2.5625 3.734375zm0 -0.4375q0.578125 0 0.90625 -0.34375q0.328125 -0.359375 0.453125 -1.078125q0.140625 -0.71875 0.140625 -1.875q0 -1.15625 -0.140625 -1.875q-0.125 -0.71875 -0.453125 -1.0625q-0.328125 -0.3593731 -0.90625 -0.3593731q-0.578125 0 -0.90625 0.3593731q-0.3125 0.34375 -0.453125 1.0625q-0.125 0.71875 -0.125 1.875q0 1.15625 0.125 1.875q0.140625 0.71875 0.453125 1.078125q0.328125 0.34375 0.90625 0.34375z" fill-rule="nonzero"/><path fill="#e0e0e0" d="m303.01883 38.853237q-2.5625 0 -2.5625 -3.734375q0 -3.734373 2.5625 -3.734373q2.5625 0 2.5625 3.734373q0 3.734375 -2.5625 3.734375zm0 -0.4375q0.578125 0 0.90625 -0.34375q0.328125 -0.359375 0.453125 -1.078125q0.140625 -0.71875 0.140625 -1.875q0 -1.15625 -0.140625 -1.875q-0.125 -0.71875 -0.453125 -1.0625q-0.328125 -0.3593731 -0.90625 -0.3593731q-0.578125 0 -0.90625 0.3593731q-0.3125 0.34375 -0.453125 1.0625q-0.125 0.71875 -0.125 1.875q0 1.15625 0.125 1.875q0.140625 0.71875 0.453125 1.078125q0.328125 0.34375 0.90625 0.34375zm4.488922 0.21875l0 -5.96875l-1.03125 0.671875l-0.1875 -0.25l1.640625 -1.4843731l0.53125 0l0 7.031248l-0.953125 0zm4.984558 0.21875q-2.5625 0 -2.5625 -3.734375q0 -3.734373 2.5625 -3.734373q2.5625 0 2.5625 3.734373q0 3.734375 -2.5625 3.734375zm0 -0.4375q0.578125 0 0.90625 -0.34375q0.328125 -0.359375 0.453125 -1.078125q0.140625 -0.71875 0.140625 -1.875q0 -1.15625 -0.140625 -1.875q-0.125 -0.71875 -0.453125 -1.0625q-0.328125 -0.3593731 -0.90625 -0.3593731q-0.578125 0 -0.90625 0.3593731q-0.3125 0.34375 -0.453125 1.0625q-0.125 0.71875 -0.125 1.875q0 1.15625 0.125 1.875q0.140625 0.71875 0.453125 1.078125q0.328125 0.34375 0.90625 0.34375zm4.4889526 0.21875l0 -5.96875l-1.03125 0.671875l-0.1875 -0.25l1.640625 -1.4843731l0.53125 0l0 7.031248l-0.953125 0zm3.250183 0l0 -5.96875l-1.03125 0.671875l-0.1875 -0.25l1.640625 -1.4843731l0.53125 0l0 7.031248l-0.953125 0zm4.984558 0.21875q-2.5625 0 -2.5625 -3.734375q0 -3.734373 2.5625 -3.734373q2.5625 0 2.5625 3.734373q0 3.734375 -2.5625 3.734375zm0 -0.4375q0.578125 0 0.90625 -0.34375q0.328125 -0.359375 0.453125 -1.078125q0.140625 -0.71875 0.140625 -1.875q0 -1.15625 -0.140625 -1.875q-0.125 -0.71875 -0.453125 -1.0625q-0.328125 -0.3593731 -0.90625 -0.3593731q-0.578125 0 -0.90625 0.3593731q-0.3125 0.34375 -0.453125 1.0625q-0.125 0.71875 -0.125 1.875q0 1.15625 0.125 1.875q0.140625 0.71875 0.453125 1.078125q0.328125 0.34375 0.90625 0.34375zm4.488922 0.21875l0 -5.96875l-1.03125 0.671875l-0.1875 -0.25l1.640625 -1.4843731l0.53125 0l0 7.031248l-0.953125 0zm4.984558 0.21875q-2.5625 0 -2.5625 -3.734375q0 -3.734373 2.5625 -3.734373q2.5625 0 2.5625 3.734373q0 3.734375 -2.5625 3.734375zm0 -0.4375q0.578125 0 0.90625 -0.34375q0.328125 -0.359375 0.453125 -1.078125q0.140625 -0.71875 0.140625 -1.875q0 -1.15625 -0.140625 -1.875q-0.125 -0.71875 -0.453125 -1.0625q-0.328125 -0.3593731 -0.90625 -0.3593731q-0.578125 0 -0.90625 0.3593731q-0.3125 0.34375 -0.453125 1.0625q-0.125 0.71875 -0.125 1.875q0 1.15625 0.125 1.875q0.140625 0.71875 0.453125 1.078125q0.328125 0.34375 0.90625 0.34375z" fill-rule="nonzero"/><path fill="#e0e0e0" d="m270.56226 77.4547l0 -5.96875l-1.03125 0.671875l-0.1875 -0.25l1.640625 -1.484375l0.53125 0l0 7.03125l-0.953125 0z" fill-rule="nonzero"/><path fill="#e0e0e0" d="m303.01883 77.67345q-2.5625 0 -2.5625 -3.734375q0 -3.734375 2.5625 -3.734375q2.5625 0 2.5625 3.734375q0 3.734375 -2.5625 3.734375zm0 -0.4375q0.578125 0 0.90625 -0.34375q0.328125 -0.359375 0.453125 -1.078125q0.140625 -0.71875 0.140625 -1.875q0 -1.15625 -0.140625 -1.875q-0.125 -0.71875 -0.453125 -1.0625q-0.328125 -0.359375 -0.90625 -0.359375q-0.578125 0 -0.90625 0.359375q-0.3125 0.34375 -0.453125 1.0625q-0.125 0.71875 -0.125 1.875q0 1.15625 0.125 1.875q0.140625 0.71875 0.453125 1.078125q0.328125 0.34375 0.90625 0.34375zm4.488922 0.21875l0 -5.96875l-1.03125 0.671875l-0.1875 -0.25l1.640625 -1.484375l0.53125 0l0 7.03125l-0.953125 0zm4.984558 0.21875q-2.5625 0 -2.5625 -3.734375q0 -3.734375 2.5625 -3.734375q2.5625 0 2.5625 3.734375q0 3.734375 -2.5625 3.734375zm0 -0.4375q0.578125 0 0.90625 -0.34375q0.328125 -0.359375 0.453125 -1.078125q0.140625 -0.71875 0.140625 -1.875q0 -1.15625 -0.140625 -1.875q-0.125 -0.71875 -0.453125 -1.0625q-0.328125 -0.359375 -0.90625 -0.359375q-0.578125 0 -0.90625 0.359375q-0.3125 0.34375 -0.453125 1.0625q-0.125 0.71875 -0.125 1.875q0 1.15625 0.125 1.875q0.140625 0.71875 0.453125 1.078125q0.328125 0.34375 0.90625 0.34375zm6.2233276 0.4375q-2.5625 0 -2.5625 -3.734375q0 -3.734375 2.5625 -3.734375q2.5625 0 2.5625 3.734375q0 3.734375 -2.5625 3.734375zm0 -0.4375q0.578125 0 0.90625 -0.34375q0.328125 -0.359375 0.453125 -1.078125q0.140625 -0.71875 0.140625 -1.875q0 -1.15625 -0.140625 -1.875q-0.125 -0.71875 -0.453125 -1.0625q-0.328125 -0.359375 -0.90625 -0.359375q-0.578125 0 -0.90625 0.359375q-0.3125 0.34375 -0.453125 1.0625q-0.125 0.71875 -0.125 1.875q0 1.15625 0.125 1.875q0.140625 0.71875 0.453125 1.078125q0.328125 0.34375 0.90625 0.34375zm4.488922 0.21875l0 -5.96875l-1.03125 0.671875l-0.1875 -0.25l1.640625 -1.484375l0.53125 0l0 7.03125l-0.953125 0zm4.984558 0.21875q-2.5625 0 -2.5625 -3.734375q0 -3.734375 2.5625 -3.734375q2.5625 0 2.5625 3.734375q0 3.734375 -2.5625 3.734375zm0 -0.4375q0.578125 0 0.90625 -0.34375q0.328125 -0.359375 0.453125 -1.078125q0.140625 -0.71875 0.140625 -1.875q0 -1.15625 -0.140625 -1.875q-0.125 -0.71875 -0.453125 -1.0625q-0.328125 -0.359375 -0.90625 -0.359375q-0.578125 0 -0.90625 0.359375q-0.3125 0.34375 -0.453125 1.0625q-0.125 0.71875 -0.125 1.875q0 1.15625 0.125 1.875q0.140625 0.71875 0.453125 1.078125q0.328125 0.34375 0.90625 0.34375zm4.4889526 0.21875l0 -5.96875l-1.03125 0.671875l-0.1875 -0.25l1.640625 -1.484375l0.53125 0l0 7.03125l-0.953125 0zm3.250183 0l0 -5.96875l-1.03125 0.671875l-0.1875 -0.25l1.640625 -1.484375l0.53125 0l0 7.03125l-0.953125 0z" fill-rule="nonzero"/><path fill="#e0e0e0" d="m268.4259 117.56649q0.5625 -0.546875 0.859375 -0.828125q1.0625 -1.0 1.546875 -1.53125q0.484375 -0.546875 0.765625 -1.109375q0.296875 -0.5625 0.296875 -1.21875q0 -0.765625 -0.40625 -1.171875q-0.40625 -0.421875 -0.984375 -0.421875q-0.65625 0 -1.125 0.46875q-0.46875 0.46875 -0.640625 1.328125l-0.203125 0q0 -0.53125 0.03125 -0.84375q0.046875 -0.3125 0.21875 -0.53125q0.296875 -0.359375 0.859375 -0.609375q0.5625 -0.25 1.171875 -0.25q0.84375 0 1.484375 0.453125q0.65625 0.4375 0.65625 1.578125q0 0.671875 -0.3125 1.265625q-0.3125 0.578125 -0.8125 1.09375q-0.5 0.5 -1.40625 1.296875q-0.9375 0.84375 -1.25 1.140625l2.390625 0q0.65625 0 0.984375 -0.28125q0.34375 -0.28125 0.34375 -0.84375l0.21875 0l0 0.6875q0 0.859375 -0.90625 0.859375l-3.78125 0l0 -0.53125z" fill-rule="nonzero"/><path fill="#e0e0e0" d="m303.01883 118.31649q-2.5625 0 -2.5625 -3.734375q0 -3.734375 2.5625 -3.734375q2.5625 0 2.5625 3.734375q0 3.734375 -2.5625 3.734375zm0 -0.4375q0.578125 0 0.90625 -0.34375q0.328125 -0.359375 0.453125 -1.078125q0.140625 -0.71875 0.140625 -1.875q0 -1.15625 -0.140625 -1.875q-0.125 -0.71875 -0.453125 -1.0625q-0.328125 -0.359375 -0.90625 -0.359375q-0.578125 0 -0.90625 0.359375q-0.3125 0.34375 -0.453125 1.0625q-0.125 0.71875 -0.125 1.875q0 1.15625 0.125 1.875q0.140625 0.71875 0.453125 1.078125q0.328125 0.34375 0.90625 0.34375zm4.488922 0.21875l0 -5.96875l-1.03125 0.671875l-0.1875 -0.25l1.640625 -1.484375l0.53125 0l0 7.03125l-0.953125 0zm4.984558 0.21875q-2.5625 0 -2.5625 -3.734375q0 -3.734375 2.5625 -3.734375q2.5625 0 2.5625 3.734375q0 3.734375 -2.5625 3.734375zm0 -0.4375q0.578125 0 0.90625 -0.34375q0.328125 -0.359375 0.453125 -1.078125q0.140625 -0.71875 0.140625 -1.875q0 -1.15625 -0.140625 -1.875q-0.125 -0.71875 -0.453125 -1.0625q-0.328125 -0.359375 -0.90625 -0.359375q-0.578125 0 -0.90625 0.359375q-0.3125 0.34375 -0.453125 1.0625q-0.125 0.71875 -0.125 1.875q0 1.15625 0.125 1.875q0.140625 0.71875 0.453125 1.078125q0.328125 0.34375 0.90625 0.34375zm4.4889526 0.21875l0 -5.96875l-1.03125 0.671875l-0.1875 -0.25l1.640625 -1.484375l0.53125 0l0 7.03125l-0.953125 0zm3.250183 0l0 -5.96875l-1.03125 0.671875l-0.1875 -0.25l1.640625 -1.484375l0.53125 0l0 7.03125l-0.953125 0zm3.250183 0l0 -5.96875l-1.03125 0.671875l-0.1875 -0.25l1.640625 -1.484375l0.53125 0l0 7.03125l-0.953125 0zm3.250183 0l0 -5.96875l-1.03125 0.671875l-0.1875 -0.25l1.640625 -1.484375l0.53125 0l0 7.03125l-0.953125 0zm4.984558 0.21875q-2.5625 0 -2.5625 -3.734375q0 -3.734375 2.5625 -3.734375q2.5625 0 2.5625 3.734375q0 3.734375 -2.5625 3.734375zm0 -0.4375q0.578125 0 0.90625 -0.34375q0.328125 -0.359375 0.453125 -1.078125q0.140625 -0.71875 0.140625 -1.875q0 -1.15625 -0.140625 -1.875q-0.125 -0.71875 -0.453125 -1.0625q-0.328125 -0.359375 -0.90625 -0.359375q-0.578125 0 -0.90625 0.359375q-0.3125 0.34375 -0.453125 1.0625q-0.125 0.71875 -0.125 1.875q0 1.15625 0.125 1.875q0.140625 0.71875 0.453125 1.078125q0.328125 0.34375 0.90625 0.34375z" fill-rule="nonzero"/><path fill="#e0e0e0" d="m270.81653 158.95953q-0.765625 0 -1.34375 -0.296875q-0.578125 -0.296875 -1.0625 -0.84375l0.171875 -0.203125q0.421875 0.46875 0.890625 0.6875q0.484375 0.21875 1.078125 0.21875q0.703125 0 1.15625 -0.4375q0.453125 -0.4375 0.453125 -1.3125q0 -0.53125 -0.203125 -0.90625q-0.203125 -0.375 -0.53125 -0.5625q-0.3125 -0.1875 -0.65625 -0.1875q-0.453125 0 -0.671875 0.03125q-0.203125 0.03125 -0.609375 0.125l-0.28125 -0.4375l2.890625 -2.703125l-1.96875 0q-0.65625 0 -1.0 0.28125q-0.328125 0.28125 -0.328125 0.84375l-0.21875 0l0 -0.703125q0 -0.84375 0.90625 -0.84375l3.390625 0l0 0.421875l-2.859375 2.671875q0.421875 -0.109375 0.96875 -0.109375q0.421875 0 0.921875 0.171875q0.515625 0.171875 0.90625 0.640625q0.40625 0.46875 0.40625 1.265625q0 0.84375 -0.40625 1.34375q-0.390625 0.484375 -0.9375 0.65625q-0.546875 0.1875 -1.0625 0.1875z" fill-rule="nonzero"/><path fill="#e0e0e0" d="m301.28445 158.74078l0 -5.96875l-1.03125 0.671875l-0.1875 -0.25l1.640625 -1.484375l0.53125 0l0 7.03125l-0.953125 0zm3.250183 0l0 -5.96875l-1.03125 0.671875l-0.1875 -0.25l1.640625 -1.484375l0.53125 0l0 7.03125l-0.953125 0zm4.984558 0.21875q-2.5625 0 -2.5625 -3.734375q0 -3.734375 2.5625 -3.734375q2.5625 0 2.5625 3.734375q0 3.734375 -2.5625 3.734375zm0 -0.4375q0.578125 0 0.90625 -0.34375q0.328125 -0.359375 0.453125 -1.078125q0.140625 -0.71875 0.140625 -1.875q0 -1.15625 -0.140625 -1.875q-0.125 -0.71875 -0.453125 -1.0625q-0.328125 -0.359375 -0.90625 -0.359375q-0.578125 0 -0.90625 0.359375q-0.3125 0.34375 -0.453125 1.0625q-0.125 0.71875 -0.125 1.875q0 1.15625 0.125 1.875q0.140625 0.71875 0.453125 1.078125q0.328125 0.34375 0.90625 0.34375zm4.488922 0.21875l0 -5.96875l-1.03125 0.671875l-0.1875 -0.25l1.640625 -1.484375l0.53125 0l0 7.03125l-0.953125 0zm3.250183 0l0 -5.96875l-1.03125 0.671875l-0.1875 -0.25l1.640625 -1.484375l0.53125 0l0 7.03125l-0.953125 0zm3.250183 0l0 -5.96875l-1.03125 0.671875l-0.1875 -0.25l1.640625 -1.484375l0.53125 0l0 7.03125l-0.953125 0zm3.250183 0l0 -5.96875l-1.03125 0.671875l-0.1875 -0.25l1.640625 -1.484375l0.53125 0l0 7.03125l-0.953125 0zm4.984558 0.21875q-2.5625 0 -2.5625 -3.734375q0 -3.734375 2.5625 -3.734375q2.5625 0 2.5625 3.734375q0 3.734375 -2.5625 3.734375zm0 -0.4375q0.578125 0 0.90625 -0.34375q0.328125 -0.359375 0.453125 -1.078125q0.140625 -0.71875 0.140625 -1.875q0 -1.15625 -0.140625 -1.875q-0.125 -0.71875 -0.453125 -1.0625q-0.328125 -0.359375 -0.90625 -0.359375q-0.578125 0 -0.90625 0.359375q-0.3125 0.34375 -0.453125 1.0625q-0.125 0.71875 -0.125 1.875q0 1.15625 0.125 1.875q0.140625 0.71875 0.453125 1.078125q0.328125 0.34375 0.90625 0.34375z" fill-rule="nonzero"/></g></svg>