<svg version="1.1" viewBox="0.0 0.0 128.0 128.0" fill="none" stroke="none" stroke-linecap="square" stroke-miterlimit="10" xmlns:xlink="http://www.w3.org/1999/xlink" xmlns="http://www.w3.org/2000/svg"><clipPath id="p.0"><path d="m0 0l128.0 0l0 128.0l-128.0 0l0 -128.0z" clip-rule="nonzero"/></clipPath><g clip-path="url(#p.0)"><path fill="#000000" fill-opacity="0.0" d="m0 0l128.0 0l0 128.0l-128.0 0z" fill-rule="evenodd"/><path fill="#000000" d="m0 64.0l0 0c0 -35.346222 28.653776 -64.0 64.0 -64.0l0 0c16.973854 0 33.252502 6.742838 45.254837 18.745167c12.002327 12.002327 18.745163 28.28098 18.745163 45.254833l0 0c0 35.346222 -28.653778 64.0 -64.0 64.0l0 0c-35.346222 0 -64.0 -28.653778 -64.0 -64.0z" fill-rule="evenodd"/><path stroke="#000000" stroke-width="1.0" stroke-linejoin="round" stroke-linecap="butt" d="m0 64.0l0 0c0 -35.346222 28.653776 -64.0 64.0 -64.0l0 0c16.973854 0 33.252502 6.742838 45.254837 18.745167c12.002327 12.002327 18.745163 28.28098 18.745163 45.254833l0 0c0 35.346222 -28.653778 64.0 -64.0 64.0l0 0c-35.346222 0 -64.0 -28.653778 -64.0 -64.0z" fill-rule="evenodd"/><path fill="#ffffff" d="m19.559055 63.2231l0 0c0 -5.827259 4.7239246 -10.551182 10.551182 -10.551182l0 0c2.7983475 0 5.4820824 1.1116371 7.4608116 3.0903702c1.9787292 1.9787292 3.0903702 4.662464 3.0903702 7.4608116l0 0c0 5.8272552 -4.7239265 10.551178 -10.551182 10.551178l0 0c-5.827257 0 -10.551182 -4.7239227 -10.551182 -10.551178z" fill-rule="evenodd"/><path stroke="#000000" stroke-width="1.0" stroke-linejoin="round" stroke-linecap="butt" d="m19.559055 63.2231l0 0c0 -5.827259 4.7239246 -10.551182 10.551182 -10.551182l0 0c2.7983475 0 5.4820824 1.1116371 7.4608116 3.0903702c1.9787292 1.9787292 3.0903702 4.662464 3.0903702 7.4608116l0 0c0 5.8272552 -4.7239265 10.551178 -10.551182 10.551178l0 0c-5.827257 0 -10.551182 -4.7239227 -10.551182 -10.551178z" fill-rule="evenodd"/><path fill="#ffffff" d="m53.44882 63.2231l0 0c0 -5.827259 4.7239265 -10.551182 10.551182 -10.551182l0 0c2.7983475 0 5.4820786 1.1116371 7.4608154 3.0903702c1.9787292 1.9787292 3.0903625 4.662464 3.0903625 7.4608116l0 0c0 5.8272552 -4.7239227 10.551178 -10.551178 10.551178l0 0c-5.8272552 0 -10.551182 -4.7239227 -10.551182 -10.551178z" fill-rule="evenodd"/><path stroke="#000000" stroke-width="1.0" stroke-linejoin="round" stroke-linecap="butt" d="m53.44882 63.2231l0 0c0 -5.827259 4.7239265 -10.551182 10.551182 -10.551182l0 0c2.7983475 0 5.4820786 1.1116371 7.4608154 3.0903702c1.9787292 1.9787292 3.0903625 4.662464 3.0903625 7.4608116l0 0c0 5.8272552 -4.7239227 10.551178 -10.551178 10.551178l0 0c-5.8272552 0 -10.551182 -4.7239227 -10.551182 -10.551178z" fill-rule="evenodd"/><path fill="#ffffff" d="m87.338585 64.0l0 0c0 -5.8272552 4.7239227 -10.551182 10.551178 -10.551182l0 0c2.7983475 0 5.4820786 1.1116409 7.4608154 3.0903702c1.9787292 1.9787292 3.0903702 4.662464 3.0903702 7.4608116l0 0c0 5.8272552 -4.7239304 10.551178 -10.551186 10.551178l0 0c-5.8272552 0 -10.551178 -4.7239227 -10.551178 -10.551178z" fill-rule="evenodd"/><path stroke="#000000" stroke-width="1.0" stroke-linejoin="round" stroke-linecap="butt" d="m87.338585 64.0l0 0c0 -5.8272552 4.7239227 -10.551182 10.551178 -10.551182l0 0c2.7983475 0 5.4820786 1.1116409 7.4608154 3.0903702c1.9787292 1.9787292 3.0903702 4.662464 3.0903702 7.4608116l0 0c0 5.8272552 -4.7239304 10.551178 -10.551186 10.551178l0 0c-5.8272552 0 -10.551178 -4.7239227 -10.551178 -10.551178z" fill-rule="evenodd"/></g></svg>